<svg version="1.1" xmlns="http://www.w3.org/2000/svg" viewBox="0 0 881.3618235855447 600" width="881.3618235855447" height="600">
  <!-- svg-source:excalidraw -->
  
  <defs>
    <style class="style-fonts">
      
    </style>
    
  </defs>
  <g stroke-linecap="round" transform="translate(10 410) rotate(0 70 90)"><path d="M32 0 C59.31 3.91, 83.3 -0.72, 108 0 C130.55 2.89, 141.65 9.51, 140 32 C140.8 73.98, 142.33 110.14, 140 148 C138.7 168.65, 126.59 177.52, 108 180 C83.3 176.21, 57.97 175.5, 32 180 C8 179.74, -0.96 167.62, 0 148 C-3.08 112.23, 0.46 79.04, 0 32 C0.91 10.47, 12.66 2.92, 32 0" stroke="none" stroke-width="0" fill="#f8f1ee"></path><path d="M32 0 C51.81 -1.38, 74.63 2.35, 108 0 M32 0 C57.38 -0.3, 81.37 0.52, 108 0 M108 0 C128.52 1.64, 138.27 9.86, 140 32 M108 0 C129.28 -2.12, 140.37 11.16, 140 32 M140 32 C137.3 62.69, 139.51 91.12, 140 148 M140 32 C140.94 62.9, 141.44 95.02, 140 148 M140 148 C140.17 168.71, 128.57 180.94, 108 180 M140 148 C142.23 170.76, 129.56 180.53, 108 180 M108 180 C89.4 180.5, 68.79 178.57, 32 180 M108 180 C86.29 179.67, 66.66 179.75, 32 180 M32 180 C10.19 180.57, 1.37 170.93, 0 148 M32 180 C10.94 180.43, 0.38 171.51, 0 148 M0 148 C0.22 124.7, 0.21 97.76, 0 32 M0 148 C0.06 102.43, -0.99 55.18, 0 32 M0 32 C0 12.59, 12.11 -0.82, 32 0 M0 32 C0.56 11.88, 10.7 2.21, 32 0" stroke="#1e1e1e" stroke-width="2" fill="none"></path></g><g stroke-linecap="round" transform="translate(10 210) rotate(0 70 90)"><path d="M32 0 C52.91 -2.25, 72.27 2.04, 108 0 C130.53 -1.02, 141.53 11.17, 140 32 C136.5 55.45, 140.91 82.17, 140 148 C137.51 170.95, 126.49 182.6, 108 180 C91.75 178.18, 77.79 182.32, 32 180 C7.64 178.32, 0.2 171.2, 0 148 C1.47 106.48, 0.91 56.68, 0 32 C3.19 12.1, 7.82 -1.86, 32 0" stroke="none" stroke-width="0" fill="#fff9db"></path><path d="M32 0 C61.99 2.27, 91.35 1.1, 108 0 M32 0 C57.94 -1.02, 85.58 -1.54, 108 0 M108 0 C129.66 0.43, 139.23 9.1, 140 32 M108 0 C129.55 -2.06, 140.43 11.14, 140 32 M140 32 C140.18 59.08, 138.24 86.23, 140 148 M140 32 C139.72 64.68, 141.07 97.05, 140 148 M140 148 C140.2 169.79, 128.33 180.95, 108 180 M140 148 C138.08 169.79, 130.64 178.59, 108 180 M108 180 C88.66 178.84, 67.43 181.4, 32 180 M108 180 C89.09 181.01, 68.93 180.4, 32 180 M32 180 C11 181.89, -1.78 168.37, 0 148 M32 180 C9.27 179.61, 1.35 168.93, 0 148 M0 148 C0.63 121.81, 0.25 92.43, 0 32 M0 148 C0.72 115.95, 0.24 85.25, 0 32 M0 32 C0.03 12.59, 11.32 -0.26, 32 0 M0 32 C-1.61 11.95, 12.55 0.45, 32 0" stroke="#1e1e1e" stroke-width="2" fill="none"></path></g><g stroke-linecap="round" transform="translate(10 10) rotate(0 70 90)"><path d="M32 0 C55.93 0.07, 86.11 -4.43, 108 0 C129.36 -2.02, 141.08 9.59, 140 32 C139.25 69.58, 136.87 103.99, 140 148 C142.96 167.71, 132.03 178.07, 108 180 C85.18 178.79, 60.44 176.41, 32 180 C13.09 181.69, 0.9 169.73, 0 148 C-0.74 112.23, 0.82 67.8, 0 32 C-1.65 9.86, 12.7 -1.99, 32 0" stroke="none" stroke-width="0" fill="#fff4e6"></path><path d="M32 0 C57.17 -1.37, 78.1 1.17, 108 0 M32 0 C51.91 0.13, 70.17 0.44, 108 0 M108 0 C128.12 -0.69, 138.79 12.51, 140 32 M108 0 C131.46 1, 138.33 12.29, 140 32 M140 32 C141.45 68.57, 142.85 103.38, 140 148 M140 32 C140.29 70.05, 140.17 108.68, 140 148 M140 148 C140.87 168.28, 129 180.7, 108 180 M140 148 C137.81 170.71, 131.32 182.15, 108 180 M108 180 C84 178.59, 57.82 180.26, 32 180 M108 180 C92.04 180.13, 77.55 178.81, 32 180 M32 180 C8.98 181.02, 0.11 168.6, 0 148 M32 180 C10.68 178.93, 1.36 170.13, 0 148 M0 148 C-0.35 108.37, 0.69 67.01, 0 32 M0 148 C1.19 102.92, -0.07 57.52, 0 32 M0 32 C1.73 10.67, 9.45 -1.88, 32 0 M0 32 C0.61 12.94, 10.99 -1.03, 32 0" stroke="#1e1e1e" stroke-width="2" fill="none"></path></g><g stroke-linecap="round" transform="translate(370 30) rotate(360 250.68091179277235 280)"><path d="M0 0 C115.72 1.35, 231.76 1.55, 501.36 0 M0 0 C107.13 -0.82, 213.83 -1.01, 501.36 0 M501.36 0 C499.57 115.29, 500.03 229.09, 501.36 560 M501.36 0 C499.83 182.91, 500.23 365.96, 501.36 560 M501.36 560 C398.36 560.92, 294.73 560.81, 0 560 M501.36 560 C340.13 560.98, 178.53 560.31, 0 560 M0 560 C1.38 441.33, 1.24 322.13, 0 0 M0 560 C-0.43 368.97, -0.6 177.96, 0 0" stroke="#1e1e1e" stroke-width="2" fill="none"></path></g><g stroke-linecap="round" transform="translate(388.6381764144553 290.00000000000136) rotate(360 70 22.5)"><path d="M11.25 0 C39.66 -3.49, 68.76 -5.15, 128.75 0 C135.72 2.83, 143.6 5.3, 140 11.25 C139.65 18.98, 141.73 23.99, 140 33.75 C139.25 38.54, 139.32 46.46, 128.75 45 C84.19 46.5, 43.83 46.09, 11.25 45 C2.41 44.67, -2.66 44.19, 0 33.75 C3.38 27.08, -1.43 14.4, 0 11.25 C-2.01 6.16, 7.29 -1.63, 11.25 0" stroke="none" stroke-width="0" fill="#ffc9c9"></path><path d="M11.25 0 C41.58 0.79, 67.65 0.47, 128.75 0 M11.25 0 C53.18 -0.64, 94.96 -1.96, 128.75 0 M128.75 0 C135.4 0.1, 141.64 5.02, 140 11.25 M128.75 0 C135.75 0.62, 138.69 2.63, 140 11.25 M140 11.25 C138.51 14.67, 138.66 23.18, 140 33.75 M140 11.25 C139.17 20.12, 140.49 28.86, 140 33.75 M140 33.75 C141.42 43.01, 137.24 43.43, 128.75 45 M140 33.75 C137.99 40.26, 137.65 46.18, 128.75 45 M128.75 45 C89.22 45.68, 49.16 45.62, 11.25 45 M128.75 45 C87.45 45.54, 47.75 45.51, 11.25 45 M11.25 45 C2.83 44.15, -0.77 39.96, 0 33.75 M11.25 45 C1.87 45.66, 2.08 39.76, 0 33.75 M0 33.75 C-1.41 29.01, -0.31 21.73, 0 11.25 M0 33.75 C-0.28 25.32, -0.12 17.93, 0 11.25 M0 11.25 C1.31 4.28, 5.32 -0.52, 11.25 0 M0 11.25 C1 3.29, 5.04 0.47, 11.25 0" stroke="#1e1e1e" stroke-width="2" fill="none"></path></g><g stroke-linecap="round" transform="translate(389.9999999999991 110.00000000000136) rotate(360 70 22.5)"><path d="M11.25 0 C40.23 4.84, 73.87 3.56, 128.75 0 C137.23 2.45, 140 3.13, 140 11.25 C139.41 15.52, 143.23 26.67, 140 33.75 C142.01 44.56, 138.44 42.26, 128.75 45 C91.46 44.55, 54.19 47.83, 11.25 45 C5.82 42.85, 3.33 44.39, 0 33.75 C-1.82 28.55, 3.73 16.91, 0 11.25 C-1.63 5.09, 4.15 -2.26, 11.25 0" stroke="none" stroke-width="0" fill="#fcc2d7"></path><path d="M11.25 0 C54.9 0.15, 98.08 -1.32, 128.75 0 M11.25 0 C52.01 1.02, 94.44 1.6, 128.75 0 M128.75 0 C135.82 0.54, 138.87 2.78, 140 11.25 M128.75 0 C134.75 -1.16, 140.78 2.17, 140 11.25 M140 11.25 C141.55 14.77, 141.66 19.16, 140 33.75 M140 11.25 C140.85 19.38, 140.64 24.96, 140 33.75 M140 33.75 C138.25 40.39, 137.47 46.03, 128.75 45 M140 33.75 C141 42.03, 136.71 45.95, 128.75 45 M128.75 45 C91.76 44.76, 54.83 43.64, 11.25 45 M128.75 45 C99.49 43.9, 70.78 43.68, 11.25 45 M11.25 45 C2.11 45.57, 1.81 39.95, 0 33.75 M11.25 45 C3.31 45.83, -0.23 39.73, 0 33.75 M0 33.75 C1.15 23.57, 0.55 15.77, 0 11.25 M0 33.75 C0.72 28.21, 0.85 21.87, 0 11.25 M0 11.25 C0.87 3.35, 4.87 0.41, 11.25 0 M0 11.25 C-1.52 5.3, 5.63 0.59, 11.25 0" stroke="#1e1e1e" stroke-width="2" fill="none"></path></g><g stroke-linecap="round" transform="translate(388.6381764144544 170.00000000000273) rotate(360 70 22.5)"><path d="M11.25 0 C56.7 1.53, 100.19 -1.53, 128.75 0 C136.62 1.45, 138.02 3, 140 11.25 C142.36 19.62, 142.54 18.62, 140 33.75 C140.22 39.97, 136.05 43.66, 128.75 45 C96.65 44.58, 63.75 49.87, 11.25 45 C5.12 43.33, -3.26 39.24, 0 33.75 C-2.03 26.83, 0 14.98, 0 11.25 C-0.38 2.79, 7.23 3.5, 11.25 0" stroke="none" stroke-width="0" fill="#a5d8ff"></path><path d="M11.25 0 C51.48 -1.44, 88.06 -0.39, 128.75 0 M11.25 0 C46.9 -0.47, 82.41 -1.23, 128.75 0 M128.75 0 C134.95 -1.01, 140.68 2.38, 140 11.25 M128.75 0 C134.11 -1.41, 141.57 5.69, 140 11.25 M140 11.25 C140.65 17.97, 140.83 23.63, 140 33.75 M140 11.25 C139.24 19.55, 140.72 29.23, 140 33.75 M140 33.75 C140.87 41.93, 136.65 45.83, 128.75 45 M140 33.75 C140.52 42.55, 136.69 46.03, 128.75 45 M128.75 45 C95.17 44.09, 62.63 43.14, 11.25 45 M128.75 45 C97.67 44.53, 69.12 43.59, 11.25 45 M11.25 45 C3.37 45.72, -0.2 39.92, 0 33.75 M11.25 45 C5.57 44.73, 0.72 42.54, 0 33.75 M0 33.75 C-0.9 28.25, 0.35 25.29, 0 11.25 M0 33.75 C0.26 26.2, 0.38 19.26, 0 11.25 M0 11.25 C-1.32 5.1, 5.38 0.51, 11.25 0 M0 11.25 C-1.12 5.36, 1.56 -0.34, 11.25 0" stroke="#1e1e1e" stroke-width="2" fill="none"></path></g><g stroke-linecap="round" transform="translate(389.9999999999982 50.000000000000455) rotate(360 70 22.5)"><path d="M11.25 0 C54.85 1.82, 95.73 -0.39, 128.75 0 C133.54 3.07, 141.46 5.76, 140 11.25 C140.46 18.79, 140.05 27.55, 140 33.75 C139.67 38.59, 139.19 47.07, 128.75 45 C101.88 45.18, 69.01 44.83, 11.25 45 C6.16 48.54, -1.63 39.62, 0 33.75 C-0.42 25.21, 3.44 22.08, 0 11.25 C3.18 4.88, 1.21 0.22, 11.25 0" stroke="none" stroke-width="0" fill="#b2f2bb"></path><path d="M11.25 0 C35.41 2.14, 60.62 0.07, 128.75 0 M11.25 0 C49.02 0.07, 88.43 -0.11, 128.75 0 M128.75 0 C134.39 -1.23, 141.37 5.44, 140 11.25 M128.75 0 C134.95 2.07, 138.39 4.26, 140 11.25 M140 11.25 C141.83 20.39, 138.51 25.8, 140 33.75 M140 11.25 C140.57 17.37, 140.34 23.22, 140 33.75 M140 33.75 C140.45 42.38, 136.64 45.89, 128.75 45 M140 33.75 C139.46 43.38, 134.42 43.74, 128.75 45 M128.75 45 C92.5 43.69, 56.66 42.82, 11.25 45 M128.75 45 C89.94 44.6, 51.41 43.57, 11.25 45 M11.25 45 C5.33 44.77, 0.63 42.37, 0 33.75 M11.25 45 C1.84 45.6, -1.07 40.29, 0 33.75 M0 33.75 C0.49 29.26, -0.57 22.5, 0 11.25 M0 33.75 C-0.79 28.13, 0.69 21.41, 0 11.25 M0 11.25 C-0.98 5.15, 1.85 -0.3, 11.25 0 M0 11.25 C1.8 6.05, 4.74 0.62, 11.25 0" stroke="#1e1e1e" stroke-width="2" fill="none"></path></g><g stroke-linecap="round" transform="translate(388.6381764144544 230.00000000000136) rotate(360 70 22.5)"><path d="M11.25 0 C48.53 3.51, 92.69 2.46, 128.75 0 C139.56 2.19, 137.26 3.97, 140 11.25 C139.64 14.55, 142.92 25.22, 140 33.75 C137.85 44.58, 139.39 46.37, 128.75 45 C101.35 47.36, 67.51 42.18, 11.25 45 C5.09 45.4, -2.26 40.87, 0 33.75 C2.78 28.73, -2.93 21.67, 0 11.25 C2.13 7.28, 5.61 -1.21, 11.25 0" stroke="none" stroke-width="0" fill="#69db7c"></path><path d="M11.25 0 C56.69 -0.88, 100.08 -1.05, 128.75 0 M11.25 0 C39.66 0.19, 70.62 1.65, 128.75 0 M128.75 0 C135.12 1.8, 138.6 4.19, 140 11.25 M128.75 0 C137.68 0.72, 141.64 5.78, 140 11.25 M140 11.25 C138.96 20.33, 140.85 27.85, 140 33.75 M140 11.25 C140.27 19.33, 140.24 26.72, 140 33.75 M140 33.75 C139.53 43.1, 134.66 43.9, 128.75 45 M140 33.75 C140.03 39.92, 135.19 44.02, 128.75 45 M128.75 45 C98.59 45.85, 65.99 43.66, 11.25 45 M128.75 45 C90.06 44.11, 50.1 44.78, 11.25 45 M11.25 45 C2.09 45.52, -0.93 40.41, 0 33.75 M11.25 45 C3.05 45.47, 1.5 41.86, 0 33.75 M0 33.75 C-0.34 26.35, 0.47 15.4, 0 11.25 M0 33.75 C-0.67 26.18, -1.13 17.06, 0 11.25 M0 11.25 C1.57 5.75, 4.61 0.54, 11.25 0 M0 11.25 C1.56 3.75, 3.35 0.24, 11.25 0" stroke="#1e1e1e" stroke-width="2" fill="none"></path></g><g stroke-linecap="round" transform="translate(549.9999999999977 49.999999999999545) rotate(360 150 20)"><path d="M0 0 C0 0, 0 0, 0 0 M0 0 C0 0, 0 0, 0 0 M0.13 12.04 C2.09 7.8, 8.28 5.7, 10.63 -0.03 M0.13 12.04 C3.7 7.69, 7.39 4.01, 10.63 -0.03 M0.27 24.08 C7.17 19.13, 11.72 14.24, 21.26 -0.07 M0.27 24.08 C7.67 15.3, 15.24 6.54, 21.26 -0.07 M-0.26 36.88 C5.52 30.17, 15.73 20.72, 31.89 -0.1 M-0.26 36.88 C8.9 28.66, 15.93 17.84, 31.89 -0.1 M7.09 40.62 C18.78 26.57, 32.87 15.3, 42.52 -0.14 M7.09 40.62 C20.78 25.64, 35.45 9.74, 42.52 -0.14 M17.72 40.58 C26.34 29.99, 38.17 20.13, 53.15 -0.17 M17.72 40.58 C27.9 28.26, 37.43 17.09, 53.15 -0.17 M28.35 40.55 C36.5 28.91, 48.9 15.74, 63.78 -0.21 M28.35 40.55 C37.02 31.63, 44.99 22.59, 63.78 -0.21 M38.98 40.51 C48.21 30.07, 53.41 23.12, 74.41 -0.24 M38.98 40.51 C51.89 26.3, 64.53 11.16, 74.41 -0.24 M49.61 40.48 C60.87 25.17, 75.72 10.18, 85.04 -0.28 M49.61 40.48 C57.6 29.04, 68.05 20.57, 85.04 -0.28 M60.24 40.44 C74.27 25.07, 87.7 12.53, 95.67 -0.31 M60.24 40.44 C74.19 24.97, 87.67 6.98, 95.67 -0.31 M70.87 40.41 C79.94 32.55, 85.5 22.74, 106.3 -0.34 M70.87 40.41 C78.43 31.93, 85.94 23.25, 106.3 -0.34 M81.5 40.37 C95.43 25.59, 106.4 11.51, 116.27 0.38 M81.5 40.37 C91.18 29.58, 100.22 19.09, 116.27 0.38 M92.13 40.34 C105.19 27.3, 118.62 10.92, 126.91 0.34 M92.13 40.34 C106.53 24.47, 118.99 9.37, 126.91 0.34 M102.76 40.31 C113.64 28.76, 125.43 15.3, 137.54 0.31 M102.76 40.31 C111.67 32.18, 119.63 23.01, 137.54 0.31 M113.39 40.27 C121.71 28.64, 131.94 17.87, 148.17 0.27 M113.39 40.27 C124.25 27.68, 134.27 17.42, 148.17 0.27 M124.02 40.24 C138.3 26.26, 152.99 9.37, 158.8 0.24 M124.02 40.24 C134.02 30.18, 142.03 17.88, 158.8 0.24 M134.65 40.2 C147.75 25.08, 159.55 11.14, 169.43 0.2 M134.65 40.2 C146.89 26.62, 159.06 11.66, 169.43 0.2 M145.28 40.17 C157.25 25.03, 170.55 8.91, 180.06 0.17 M145.28 40.17 C159.34 24.35, 171.48 9.1, 180.06 0.17 M155.91 40.13 C169.14 25.87, 184.02 9.64, 190.69 0.13 M155.91 40.13 C163.34 31.95, 169.5 23, 190.69 0.13 M165.89 40.85 C173.84 30.89, 179.84 22.59, 201.32 0.1 M165.89 40.85 C178.26 28.4, 189.75 14.02, 201.32 0.1 M176.52 40.82 C188.72 27.04, 204.67 9.49, 211.95 0.06 M176.52 40.82 C183.89 31.27, 191.99 24.43, 211.95 0.06 M187.15 40.78 C195.2 33.51, 201.44 22.19, 222.58 0.03 M187.15 40.78 C194.67 31.56, 201.93 23.61, 222.58 0.03 M197.78 40.75 C210.07 26.77, 222.46 8.55, 233.21 0 M197.78 40.75 C208.67 28.07, 221.43 14.41, 233.21 0 M208.41 40.72 C222.79 25.83, 233.48 12.84, 243.84 -0.04 M208.41 40.72 C220.45 27.4, 231.97 13.32, 243.84 -0.04 M219.04 40.68 C231.02 29.07, 238.85 16.54, 254.47 -0.07 M219.04 40.68 C228.72 30.25, 239.76 16.93, 254.47 -0.07 M229.67 40.65 C238.95 29.58, 246.1 23.89, 265.1 -0.11 M229.67 40.65 C241.96 26.4, 253.64 13.54, 265.1 -0.11 M240.3 40.61 C249.92 31.51, 256.31 23.58, 275.73 -0.14 M240.3 40.61 C252.56 24.32, 266.38 9.55, 275.73 -0.14 M250.93 40.58 C260.15 30.69, 272.56 18.92, 286.36 -0.18 M250.93 40.58 C260.19 30.56, 268.43 21.13, 286.36 -0.18 M261.56 40.54 C272.51 26.57, 281.26 17.41, 296.99 -0.21 M261.56 40.54 C270.72 31.17, 278.37 19.92, 296.99 -0.21 M272.19 40.51 C283.22 28.24, 292.19 16.9, 300.4 8.06 M272.19 40.51 C279.73 31.68, 287.42 22.17, 300.4 8.06 M282.82 40.47 C287 34.91, 292.74 27.13, 300.53 20.1 M282.82 40.47 C288.94 32.93, 295.28 26.47, 300.53 20.1 M293.45 40.44 C296.6 36.47, 299.88 34.2, 300.67 32.14 M293.45 40.44 C296.01 37.82, 298.28 34.98, 300.67 32.14" stroke="#1e1e1e" stroke-width="1" fill="none"></path><path d="M0 0 C72.24 1.93, 144.95 0.07, 300 0 M0 0 C71.15 -1.2, 142.62 -1.69, 300 0 M300 0 C301.89 15.48, 298.56 27.22, 300 40 M300 0 C300.68 10.61, 300.44 20.96, 300 40 M300 40 C203.92 40.08, 107.88 39.26, 0 40 M300 40 C226.14 38.42, 152.68 38.26, 0 40 M0 40 C-1.41 30.9, 0.61 22.35, 0 0 M0 40 C0 31.21, -1.14 21.56, 0 0" stroke="#1e1e1e" stroke-width="2" fill="none"></path></g><g stroke-linecap="round" transform="translate(548.6381764144539 110) rotate(360 150 20)"><path d="M0 0 C0 0, 0 0, 0 0 M0 0 C0 0, 0 0, 0 0 M0.13 12.04 C5.39 9.19, 8.71 3.55, 10.63 -0.03 M0.13 12.04 C4.08 7.94, 7.42 3.01, 10.63 -0.03 M0.27 24.08 C5.9 20.41, 10.72 11.62, 21.26 -0.07 M0.27 24.08 C6.4 16.61, 12.46 10.13, 21.26 -0.07 M-0.26 36.88 C13.2 24.12, 22.02 8.33, 31.89 -0.1 M-0.26 36.88 C6.89 27.08, 15.56 18.62, 31.89 -0.1 M7.09 40.62 C17.48 32.99, 25.71 22, 42.52 -0.14 M7.09 40.62 C16.18 31.57, 22.99 22.5, 42.52 -0.14 M17.72 40.58 C30.05 29.89, 38.09 14.93, 53.15 -0.17 M17.72 40.58 C28.6 27.23, 40.27 14.81, 53.15 -0.17 M28.35 40.55 C38.56 28.01, 46.37 20.5, 63.78 -0.21 M28.35 40.55 C36.58 31.93, 42.71 21.65, 63.78 -0.21 M38.98 40.51 C51.83 24.81, 68.19 8.78, 74.41 -0.24 M38.98 40.51 C50.52 27.17, 62.46 14.4, 74.41 -0.24 M49.61 40.48 C62.54 26.13, 74.64 11.53, 85.04 -0.28 M49.61 40.48 C62.57 27.89, 74.82 12.07, 85.04 -0.28 M60.24 40.44 C69.79 32.44, 78.9 21.29, 95.67 -0.31 M60.24 40.44 C71.97 24.98, 84.3 11.53, 95.67 -0.31 M70.87 40.41 C80.17 28.34, 89.02 18.51, 106.3 -0.34 M70.87 40.41 C79.32 30.82, 87.02 22.03, 106.3 -0.34 M81.5 40.37 C91.97 27.75, 101.19 14.94, 116.27 0.38 M81.5 40.37 C90.36 29.97, 100.85 18.06, 116.27 0.38 M92.13 40.34 C105.88 25.08, 118.33 12.92, 126.91 0.34 M92.13 40.34 C100.71 30.17, 110.79 18.79, 126.91 0.34 M102.76 40.31 C116.32 25.87, 128.78 7.01, 137.54 0.31 M102.76 40.31 C114.27 28.21, 123.94 15.04, 137.54 0.31 M113.39 40.27 C127.23 23.99, 140.55 9.8, 148.17 0.27 M113.39 40.27 C121.93 31.56, 131.13 20.86, 148.17 0.27 M124.02 40.24 C135.18 29.33, 142.98 17.33, 158.8 0.24 M124.02 40.24 C132.96 27.74, 144.35 17.54, 158.8 0.24 M134.65 40.2 C147.36 25.54, 161.3 12.34, 169.43 0.2 M134.65 40.2 C144.27 28.7, 155.52 16.52, 169.43 0.2 M145.28 40.17 C153.36 28.7, 164.29 20.38, 180.06 0.17 M145.28 40.17 C156.74 26, 170.97 11.02, 180.06 0.17 M155.91 40.13 C171.25 24.3, 180.76 8.37, 190.69 0.13 M155.91 40.13 C165.87 26.96, 176.48 14.76, 190.69 0.13 M165.89 40.85 C175.02 28.03, 187.3 18.6, 201.32 0.1 M165.89 40.85 C176.01 29.3, 185.96 18.85, 201.32 0.1 M176.52 40.82 C187.95 28.99, 194.07 18.41, 211.95 0.06 M176.52 40.82 C190.75 26.43, 202.48 10.31, 211.95 0.06 M187.15 40.78 C200.43 23.28, 211.89 9.73, 222.58 0.03 M187.15 40.78 C198.85 27.44, 212.46 13.72, 222.58 0.03 M197.78 40.75 C210 23.51, 225.83 9.46, 233.21 0 M197.78 40.75 C210.85 26.86, 223.11 11.65, 233.21 0 M208.41 40.72 C220.63 27.25, 234.67 10.63, 243.84 -0.04 M208.41 40.72 C216.89 30.29, 225.52 21.23, 243.84 -0.04 M219.04 40.68 C225.46 31.42, 234.15 22.68, 254.47 -0.07 M219.04 40.68 C227.54 30.59, 233.99 22.28, 254.47 -0.07 M229.67 40.65 C239.31 31.57, 249.41 19.79, 265.1 -0.11 M229.67 40.65 C237.57 31.99, 243.94 22.36, 265.1 -0.11 M240.3 40.61 C248.1 32.02, 255.63 25.31, 275.73 -0.14 M240.3 40.61 C254.11 24.81, 267.52 9.72, 275.73 -0.14 M250.93 40.58 C260.3 32.69, 266.68 23.2, 286.36 -0.18 M250.93 40.58 C260.9 29.78, 270.88 16.61, 286.36 -0.18 M261.56 40.54 C269.77 30.59, 280.29 17.68, 296.99 -0.21 M261.56 40.54 C274.35 24.24, 289.14 8.95, 296.99 -0.21 M272.19 40.51 C280.62 30.16, 289.48 19.39, 300.4 8.06 M272.19 40.51 C278.61 32.16, 285.37 26.09, 300.4 8.06 M282.82 40.47 C288.41 32.4, 295.78 25.88, 300.53 20.1 M282.82 40.47 C289.37 33.35, 295.73 26.48, 300.53 20.1 M293.45 40.44 C296.77 37.81, 298.88 35.72, 300.67 32.14 M293.45 40.44 C294.6 39.16, 296.3 36.91, 300.67 32.14" stroke="#1e1e1e" stroke-width="1" fill="none"></path><path d="M0 0 C69.42 -2.11, 139.95 0.26, 300 0 M0 0 C114.78 -1.81, 231.04 -1.75, 300 0 M300 0 C298.79 13.1, 299.49 30.92, 300 40 M300 0 C300.37 14.47, 300.4 28.67, 300 40 M300 40 C205.57 38.32, 107.62 39.5, 0 40 M300 40 C227.07 38.59, 154.1 39.28, 0 40 M0 40 C0.98 24.18, -1.07 10.34, 0 0 M0 40 C-0.95 28.72, -0.59 16.51, 0 0" stroke="#1e1e1e" stroke-width="2" fill="none"></path></g><g stroke-linecap="round" transform="translate(548.6381764144553 169.99999999999864) rotate(360 150 20)"><path d="M0 0 C0 0, 0 0, 0 0 M0 0 C0 0, 0 0, 0 0 M0.13 12.04 C3.72 8.93, 7.11 5.05, 10.63 -0.03 M0.13 12.04 C2.65 8.42, 5.45 5.85, 10.63 -0.03 M0.27 24.08 C8.5 14.14, 14.55 6.73, 21.26 -0.07 M0.27 24.08 C5.8 17.81, 13.3 9.28, 21.26 -0.07 M-0.26 36.88 C11.11 20.43, 23.53 9.07, 31.89 -0.1 M-0.26 36.88 C13.09 22.4, 24.9 7.45, 31.89 -0.1 M4.47 43.64 C16.21 31.92, 23.44 19.45, 42.52 -0.14 M4.47 43.64 C17.37 28.51, 31.29 11.74, 42.52 -0.14 M15.1 43.6 C26.15 27.87, 38.83 15.83, 53.15 -0.17 M15.1 43.6 C23.33 34.42, 31.32 24.07, 53.15 -0.17 M25.73 43.57 C35.47 32.78, 46.53 19.91, 63.78 -0.21 M25.73 43.57 C36.4 28.83, 50.16 16.71, 63.78 -0.21 M36.36 43.53 C46.51 33.97, 54.54 23.96, 74.41 -0.24 M36.36 43.53 C50.31 28.6, 63.49 12, 74.41 -0.24 M46.99 43.5 C57.81 30.46, 71.23 14.69, 85.04 -0.28 M46.99 43.5 C55.34 33.09, 61.99 25.28, 85.04 -0.28 M57.62 43.46 C69.3 31.76, 78.35 19.9, 95.67 -0.31 M57.62 43.46 C72.02 26.62, 87.67 10.17, 95.67 -0.31 M68.25 43.43 C79.5 30.13, 92.84 14.69, 106.3 -0.34 M68.25 43.43 C78.62 31.69, 88.28 21.03, 106.3 -0.34 M78.22 44.15 C87.4 31.1, 97.19 21.34, 116.27 0.38 M78.22 44.15 C90.37 30.19, 101.71 18.12, 116.27 0.38 M88.85 44.11 C104.19 29.29, 115.46 14.23, 126.91 0.34 M88.85 44.11 C100.11 31.43, 111.53 18.83, 126.91 0.34 M99.48 44.08 C113.16 24.92, 130.04 10.55, 137.54 0.31 M99.48 44.08 C113.73 26.72, 129.94 8.89, 137.54 0.31 M110.11 44.04 C120.11 33.12, 129.13 22.23, 148.17 0.27 M110.11 44.04 C119.06 34.29, 126.03 25.34, 148.17 0.27 M120.74 44.01 C134.63 26.86, 149.76 11.02, 158.8 0.24 M120.74 44.01 C135.85 28.54, 150.07 12.14, 158.8 0.24 M131.37 43.98 C143.06 33.4, 152.07 19.79, 169.43 0.2 M131.37 43.98 C147 26.69, 160.44 9.49, 169.43 0.2 M142 43.94 C154.41 31.91, 164.33 21.1, 180.06 0.17 M142 43.94 C154.41 30.63, 165.78 17.98, 180.06 0.17 M152.63 43.91 C163.61 27.85, 179.06 13.65, 190.69 0.13 M152.63 43.91 C163.49 30.47, 175.75 18.04, 190.69 0.13 M163.26 43.87 C172.93 35.46, 180.62 25.77, 201.32 0.1 M163.26 43.87 C178.88 27.4, 192.92 8.62, 201.32 0.1 M173.89 43.84 C186.14 27.29, 204.04 10.7, 211.95 0.06 M173.89 43.84 C180.96 34.09, 191.1 24.74, 211.95 0.06 M184.52 43.8 C196.44 28.29, 212.64 12.44, 222.58 0.03 M184.52 43.8 C196.07 32.45, 206.68 19.05, 222.58 0.03 M195.15 43.77 C210.63 27.72, 225.59 9.24, 233.21 0 M195.15 43.77 C210 26.26, 224.62 10.9, 233.21 0 M205.78 43.73 C217.71 30.31, 227.1 18.16, 243.84 -0.04 M205.78 43.73 C217.27 31.04, 228.01 18.27, 243.84 -0.04 M216.41 43.7 C228.22 30.23, 238.78 15.69, 254.47 -0.07 M216.41 43.7 C230.18 26.83, 245.38 10.65, 254.47 -0.07 M227.04 43.67 C235.49 35.36, 240.94 26.65, 265.1 -0.11 M227.04 43.67 C234 33.59, 242.03 26.1, 265.1 -0.11 M237.67 43.63 C248.31 33.85, 257.98 20.65, 275.73 -0.14 M237.67 43.63 C245.58 34.53, 252.98 24.86, 275.73 -0.14 M248.3 43.6 C261.93 28.12, 277.45 10.73, 286.36 -0.18 M248.3 43.6 C260.16 28.94, 271.9 15.87, 286.36 -0.18 M258.94 43.56 C266.06 33.96, 276.68 26.1, 296.99 -0.21 M258.94 43.56 C274.67 26.57, 289.08 9.95, 296.99 -0.21 M269.57 43.53 C278.69 31.99, 287.5 21.01, 304.34 3.53 M269.57 43.53 C279.42 33.19, 289.62 20.84, 304.34 3.53 M280.2 43.49 C289.04 33.79, 297.22 25.34, 304.47 15.57 M280.2 43.49 C286.6 36.79, 291.89 30.66, 304.47 15.57 M290.83 43.46 C294.93 41.34, 294.82 36.6, 303.95 28.36 M290.83 43.46 C295.32 37.91, 299.4 32.93, 303.95 28.36" stroke="#1e1e1e" stroke-width="1" fill="none"></path><path d="M0 0 C99.23 3.05, 201.51 1.22, 300 0 M0 0 C117.42 -0.26, 234.44 0.16, 300 0 M300 0 C298.82 15.2, 300.71 28.84, 300 40 M300 0 C300.3 13.92, 300.27 27.16, 300 40 M300 40 C216.26 38.27, 133.28 37.58, 0 40 M300 40 C222.13 38.79, 146.12 38.11, 0 40 M0 40 C-1.47 30.34, -0.38 18.15, 0 0 M0 40 C-0.13 25.34, 0.03 11.71, 0 0" stroke="#1e1e1e" stroke-width="2" fill="none"></path></g><g stroke-linecap="round" transform="translate(548.6381764144535 229.9999999999991) rotate(360 150 20)"><path d="M0 0 C0 0, 0 0, 0 0 M0 0 C0 0, 0 0, 0 0 M0.13 12.04 C5.37 7.18, 8.2 2.52, 10.63 -0.03 M0.13 12.04 C3.17 8.64, 7.67 4.29, 10.63 -0.03 M0.27 24.08 C8.47 14.07, 16.47 4.57, 21.26 -0.07 M0.27 24.08 C7.12 16.29, 13.58 10.74, 21.26 -0.07 M-0.26 36.88 C9.66 26.01, 23.62 11.26, 31.89 -0.1 M-0.26 36.88 C7.16 27.32, 15.71 18.98, 31.89 -0.1 M4.47 43.64 C17.79 26.25, 35.5 10.69, 42.52 -0.14 M4.47 43.64 C17.92 27.69, 31.5 13.49, 42.52 -0.14 M15.1 43.6 C29.35 27.9, 41.01 11.3, 53.15 -0.17 M15.1 43.6 C23.88 32.22, 33.18 22.97, 53.15 -0.17 M25.73 43.57 C32.8 35.49, 42.99 25.61, 63.78 -0.21 M25.73 43.57 C40.04 29.68, 51.28 13.63, 63.78 -0.21 M36.36 43.53 C48.59 30.2, 61.17 16.19, 74.41 -0.24 M36.36 43.53 C48 29.41, 58.81 17.16, 74.41 -0.24 M46.99 43.5 C60.15 27.58, 69.63 16.45, 85.04 -0.28 M46.99 43.5 C61.29 26.73, 76.74 9.5, 85.04 -0.28 M57.62 43.46 C72.58 26.65, 87.78 8.87, 95.67 -0.31 M57.62 43.46 C66.08 34.74, 74.84 24.27, 95.67 -0.31 M68.25 43.43 C78.09 31.64, 89.92 19.39, 106.3 -0.34 M68.25 43.43 C77.25 33.71, 86.13 22.48, 106.3 -0.34 M78.22 44.15 C87.38 33.07, 97.61 21.14, 116.27 0.38 M78.22 44.15 C91.33 29.91, 104.29 15.73, 116.27 0.38 M88.85 44.11 C97.3 34.7, 107.06 21.24, 126.91 0.34 M88.85 44.11 C103.08 28.42, 116.52 13.16, 126.91 0.34 M99.48 44.08 C114.65 29.16, 130.8 12.66, 137.54 0.31 M99.48 44.08 C114.92 27.03, 128.08 10.96, 137.54 0.31 M110.11 44.04 C118.81 33.9, 127.96 21.96, 148.17 0.27 M110.11 44.04 C123.89 27.8, 139.33 11.74, 148.17 0.27 M120.74 44.01 C133.36 30.53, 147.8 13.07, 158.8 0.24 M120.74 44.01 C129.67 34.41, 137.26 24.26, 158.8 0.24 M131.37 43.98 C142.23 30.54, 155.5 16.67, 169.43 0.2 M131.37 43.98 C143.37 28.76, 156.54 14.16, 169.43 0.2 M142 43.94 C150.9 35.67, 157.65 23.62, 180.06 0.17 M142 43.94 C154.97 29.78, 167.07 16.39, 180.06 0.17 M152.63 43.91 C164.2 31.82, 174.97 17.38, 190.69 0.13 M152.63 43.91 C161.37 34.58, 169.14 24.18, 190.69 0.13 M163.26 43.87 C172.02 34.7, 183.77 23.43, 201.32 0.1 M163.26 43.87 C174.43 29.5, 187.32 17.18, 201.32 0.1 M173.89 43.84 C186.39 31.8, 193.66 21.24, 211.95 0.06 M173.89 43.84 C189.67 27.5, 204.07 10.29, 211.95 0.06 M184.52 43.8 C193.42 34.68, 199.66 25.09, 222.58 0.03 M184.52 43.8 C198.91 27.17, 212.74 10.75, 222.58 0.03 M195.15 43.77 C205.08 31.97, 214.92 23.81, 233.21 0 M195.15 43.77 C208.89 29.42, 221.49 13.13, 233.21 0 M205.78 43.73 C218.62 27.98, 233.91 11.24, 243.84 -0.04 M205.78 43.73 C214.48 33.51, 224.84 21.27, 243.84 -0.04 M216.41 43.7 C225.97 30.17, 240.44 19.31, 254.47 -0.07 M216.41 43.7 C224.66 34.91, 232.19 25.02, 254.47 -0.07 M227.04 43.67 C239.85 27.93, 254.32 10.76, 265.1 -0.11 M227.04 43.67 C237.59 32.17, 249.18 18.91, 265.1 -0.11 M237.67 43.63 C249.39 30.16, 256.35 19.59, 275.73 -0.14 M237.67 43.63 C246.27 32.46, 257.07 22.87, 275.73 -0.14 M248.3 43.6 C263.31 27.47, 278.91 8.89, 286.36 -0.18 M248.3 43.6 C263.02 26.73, 277.2 8.67, 286.36 -0.18 M258.94 43.56 C274.43 28.83, 288.16 11.14, 296.99 -0.21 M258.94 43.56 C268.85 32.49, 278.41 20.38, 296.99 -0.21 M269.57 43.53 C278.63 31.32, 289.91 19.5, 304.34 3.53 M269.57 43.53 C277.42 34.27, 284.73 25.95, 304.34 3.53 M280.2 43.49 C286.98 36.86, 290.89 30.71, 304.47 15.57 M280.2 43.49 C286.98 36.19, 292.64 28.99, 304.47 15.57 M290.83 43.46 C292.93 38.75, 299.92 32.85, 303.95 28.36 M290.83 43.46 C295.07 37.98, 301.15 31.88, 303.95 28.36" stroke="#1e1e1e" stroke-width="1" fill="none"></path><path d="M0 0 C63.27 -2.33, 125.39 -2.53, 300 0 M0 0 C97.17 -0.04, 193.66 -1.26, 300 0 M300 0 C300.85 9.37, 300.51 17.4, 300 40 M300 0 C300.28 14.1, 299.85 28.24, 300 40 M300 40 C232.98 39.35, 167.03 39.46, 0 40 M300 40 C229.98 40.15, 158.5 40.89, 0 40 M0 40 C0.03 29.02, 1.39 15.13, 0 0 M0 40 C-0.12 27.16, 0.84 14.18, 0 0" stroke="#1e1e1e" stroke-width="2" fill="none"></path></g><g stroke-linecap="round" transform="translate(548.6381764144562 289.99999999999955) rotate(360 150 20)"><path d="M0 0 C0 0, 0 0, 0 0 M0 0 C0 0, 0 0, 0 0 M0.13 12.04 C3.21 8.25, 7.56 3.26, 10.63 -0.03 M0.13 12.04 C3.48 9.03, 6.82 5.7, 10.63 -0.03 M0.27 24.08 C4.84 18.01, 9.46 11.87, 21.26 -0.07 M0.27 24.08 C9.07 15.86, 16.54 5.3, 21.26 -0.07 M-0.26 36.88 C8.65 28.01, 12.5 21.92, 31.89 -0.1 M-0.26 36.88 C9.71 26.37, 20.95 14.78, 31.89 -0.1 M4.47 43.64 C18.57 31.07, 31.03 13.93, 42.52 -0.14 M4.47 43.64 C19.06 28.07, 34 10.31, 42.52 -0.14 M15.1 43.6 C21.22 33.55, 29.61 25.13, 53.15 -0.17 M15.1 43.6 C26.49 31.12, 37.04 17.26, 53.15 -0.17 M25.73 43.57 C41.22 27.69, 56.66 7.21, 63.78 -0.21 M25.73 43.57 C32.58 33.6, 41.44 25.52, 63.78 -0.21 M36.36 43.53 C49.74 29.51, 61.2 16.16, 74.41 -0.24 M36.36 43.53 C49 29.01, 61.95 13.9, 74.41 -0.24 M46.99 43.5 C57.29 30.65, 73.45 16.78, 85.04 -0.28 M46.99 43.5 C54.81 34.87, 63.89 26.1, 85.04 -0.28 M57.62 43.46 C70.84 28.66, 78.91 15.12, 95.67 -0.31 M57.62 43.46 C69.54 29.74, 80.44 15.93, 95.67 -0.31 M68.25 43.43 C82.4 28.05, 96.37 10.93, 106.3 -0.34 M68.25 43.43 C78.42 31.21, 88.93 18.52, 106.3 -0.34 M78.22 44.15 C86.13 34.06, 94.7 27.33, 116.27 0.38 M78.22 44.15 C87.2 35.02, 94.63 25.29, 116.27 0.38 M88.85 44.11 C101.69 27.91, 116.11 14.39, 126.91 0.34 M88.85 44.11 C100.46 31.4, 111.35 18.08, 126.91 0.34 M99.48 44.08 C109.93 35.65, 118.26 23.23, 137.54 0.31 M99.48 44.08 C110.82 30.43, 122.81 16.44, 137.54 0.31 M110.11 44.04 C120.99 30.12, 136.65 17.26, 148.17 0.27 M110.11 44.04 C121.99 32.11, 132.37 18.54, 148.17 0.27 M120.74 44.01 C133.65 29.04, 142.11 18.72, 158.8 0.24 M120.74 44.01 C133.6 28.48, 147.24 13.64, 158.8 0.24 M131.37 43.98 C147.33 26.73, 160.54 12.79, 169.43 0.2 M131.37 43.98 C141.93 31.71, 151.84 20.78, 169.43 0.2 M142 43.94 C152.49 29.46, 163.96 20.31, 180.06 0.17 M142 43.94 C152.57 32.9, 162.38 18.96, 180.06 0.17 M152.63 43.91 C162.55 30.91, 170.92 19.16, 190.69 0.13 M152.63 43.91 C161.1 32.73, 170.39 23.15, 190.69 0.13 M163.26 43.87 C179.52 28.52, 191.98 12.42, 201.32 0.1 M163.26 43.87 C179.25 27.53, 193.27 8.46, 201.32 0.1 M173.89 43.84 C183.34 32.24, 197.98 15.64, 211.95 0.06 M173.89 43.84 C186.41 29.62, 197.09 14.59, 211.95 0.06 M184.52 43.8 C194.84 30.02, 207.58 20.13, 222.58 0.03 M184.52 43.8 C200.15 25.67, 213.89 9.29, 222.58 0.03 M195.15 43.77 C208.94 30.92, 220.66 16.71, 233.21 0 M195.15 43.77 C203.93 32.77, 213.82 22.81, 233.21 0 M205.78 43.73 C216.93 31.08, 226.72 18.63, 243.84 -0.04 M205.78 43.73 C218.92 28.29, 231.4 14.11, 243.84 -0.04 M216.41 43.7 C230.22 31.56, 238.49 15.46, 254.47 -0.07 M216.41 43.7 C226.14 31.47, 238.47 19.56, 254.47 -0.07 M227.04 43.67 C238.92 29.02, 253.78 11.04, 265.1 -0.11 M227.04 43.67 C235.26 34.26, 243.81 24.89, 265.1 -0.11 M237.67 43.63 C248.81 28.64, 262.76 13.14, 275.73 -0.14 M237.67 43.63 C249.82 31.68, 260.85 18.14, 275.73 -0.14 M248.3 43.6 C263.7 26.27, 280.33 8.62, 286.36 -0.18 M248.3 43.6 C256.65 32.14, 267.36 21.86, 286.36 -0.18 M258.94 43.56 C271.13 29.81, 279.33 19.9, 296.99 -0.21 M258.94 43.56 C269.82 30.3, 281.23 17.34, 296.99 -0.21 M269.57 43.53 C279.02 32.2, 287.22 21.61, 304.34 3.53 M269.57 43.53 C282.23 29.01, 293.92 15.25, 304.34 3.53 M280.2 43.49 C285.41 36.9, 292.75 29.89, 304.47 15.57 M280.2 43.49 C286.35 36.25, 294.12 27.98, 304.47 15.57 M290.83 43.46 C296.93 36.64, 302.38 31.8, 303.95 28.36 M290.83 43.46 C294.88 39.14, 299.62 33.79, 303.95 28.36" stroke="#1e1e1e" stroke-width="1" fill="none"></path><path d="M0 0 C111.81 0.22, 221.3 2.16, 300 0 M0 0 C99.75 -2.51, 198.14 -2.26, 300 0 M300 0 C300.88 14.83, 301.03 29.32, 300 40 M300 0 C299.84 15.19, 299.28 27.97, 300 40 M300 40 C208.99 38.42, 118.27 37.78, 0 40 M300 40 C201.26 38.83, 102.72 38.08, 0 40 M0 40 C1.17 23.18, 0.57 8.76, 0 0 M0 40 C0.78 29.94, 0.91 19.09, 0 0" stroke="#1e1e1e" stroke-width="2" fill="none"></path></g><g stroke-linecap="round" transform="translate(391.3618235855456 410) rotate(360 70 22.5)"><path d="M11.25 0 C56.39 -5.37, 97.85 -0.84, 128.75 0 C138.95 2.69, 140.68 6.11, 140 11.25 C137.12 20.43, 139.3 25.83, 140 33.75 C141.94 42.91, 133.74 42.53, 128.75 45 C88.66 46.72, 43.64 46.78, 11.25 45 C3.41 46.3, 0.69 40.48, 0 33.75 C2.64 24.04, -0.17 21.9, 0 11.25 C2.16 5.87, 0.63 2.13, 11.25 0" stroke="none" stroke-width="0" fill="#e9ecef"></path><path d="M11.25 0 C50.76 -1.63, 92.01 -2.1, 128.75 0 M11.25 0 C37.83 -0.08, 64.33 0.06, 128.75 0 M128.75 0 C136.26 0.01, 138.98 5.6, 140 11.25 M128.75 0 C136.44 2.04, 141.97 3.21, 140 11.25 M140 11.25 C139.17 21.05, 140.26 29.64, 140 33.75 M140 11.25 C139.34 17.56, 141.03 24.53, 140 33.75 M140 33.75 C138.42 40.2, 137.23 43.48, 128.75 45 M140 33.75 C138.12 40.81, 135.12 44.65, 128.75 45 M128.75 45 C82.92 47.85, 40.25 46.57, 11.25 45 M128.75 45 C87.54 44.47, 46.63 43.27, 11.25 45 M11.25 45 C3.91 44.16, -1.08 39.56, 0 33.75 M11.25 45 C1.69 45.15, 1.75 39.82, 0 33.75 M0 33.75 C0.32 27.45, 0.53 19.79, 0 11.25 M0 33.75 C0.33 29.05, -0.26 23.45, 0 11.25 M0 11.25 C0.23 5.73, 4.92 -1.8, 11.25 0 M0 11.25 C1.94 3.08, 5 -0.19, 11.25 0" stroke="#1e1e1e" stroke-width="2" fill="none"></path></g><g stroke-linecap="round" transform="translate(390.0000000000018 470) rotate(360 70 22.5)"><path d="M11.25 0 C37.93 2.06, 59.89 1.72, 128.75 0 C135.55 -0.45, 137.1 0.92, 140 11.25 C141.87 21.45, 137.42 25.87, 140 33.75 C141.8 38.45, 137.5 46.02, 128.75 45 C89.93 46.92, 52.49 44.85, 11.25 45 C4.93 47.05, -1.12 44.12, 0 33.75 C2.15 30.51, -3.12 25.16, 0 11.25 C-0.78 0.71, 2.56 -2.11, 11.25 0" stroke="none" stroke-width="0" fill="#eaddd7"></path><path d="M11.25 0 C38.68 0.86, 67.96 0.14, 128.75 0 M11.25 0 C38.83 0.6, 65.9 1.52, 128.75 0 M128.75 0 C136.42 1.77, 141.71 3.28, 140 11.25 M128.75 0 C138.18 -1.63, 140.9 2.98, 140 11.25 M140 11.25 C139.96 21.17, 140.67 25.64, 140 33.75 M140 11.25 C139.39 16.71, 140.68 22.45, 140 33.75 M140 33.75 C138.37 40.87, 135.26 44.7, 128.75 45 M140 33.75 C141.77 42.95, 137.94 43.23, 128.75 45 M128.75 45 C82.8 45.82, 33.18 45.15, 11.25 45 M128.75 45 C88.29 43.71, 47.13 43.28, 11.25 45 M11.25 45 C1.96 45.13, 1.52 40.01, 0 33.75 M11.25 45 C4.63 44.46, -1.11 41.56, 0 33.75 M0 33.75 C-1.42 25.49, 1.38 17.95, 0 11.25 M0 33.75 C0.17 26.83, 0.65 17.04, 0 11.25 M0 11.25 C1.69 3.17, 4.83 -0.17, 11.25 0 M0 11.25 C1.53 2.16, 5.84 1.32, 11.25 0" stroke="#1e1e1e" stroke-width="2" fill="none"></path></g><g stroke-linecap="round" transform="translate(391.36182358554424 350.0000000000009) rotate(360 70 22.5)"><path d="M11.25 0 C54.59 -1.84, 96.41 -4.21, 128.75 0 C139.12 -0.64, 141.95 5.69, 140 11.25 C141.51 16.24, 140.97 27.84, 140 33.75 C140.99 38.37, 137.3 44.66, 128.75 45 C90.42 46.6, 48.62 47.42, 11.25 45 C1.52 45.06, 3.12 43.41, 0 33.75 C-0.43 22.64, -0.84 15.49, 0 11.25 C0.9 3.67, 6.2 -1.54, 11.25 0" stroke="none" stroke-width="0" fill="#f3f0ff"></path><path d="M11.25 0 C44.87 -1.26, 80.09 0.47, 128.75 0 M11.25 0 C46.66 -0.2, 82.75 -1.32, 128.75 0 M128.75 0 C137.93 -1.42, 140.78 3.08, 140 11.25 M128.75 0 C137.59 0.48, 141.28 3.65, 140 11.25 M140 11.25 C139.39 21.73, 140.02 27.35, 140 33.75 M140 11.25 C139.29 16.63, 139.62 22.24, 140 33.75 M140 33.75 C141.54 42.73, 137.72 43.46, 128.75 45 M140 33.75 C142.29 41.34, 137.07 46.14, 128.75 45 M128.75 45 C92.05 44.91, 52.07 45, 11.25 45 M128.75 45 C97.53 44.07, 68.86 43.39, 11.25 45 M11.25 45 C4.52 44.53, -0.97 41.52, 0 33.75 M11.25 45 C5.26 45.55, 1.45 39.68, 0 33.75 M0 33.75 C0.87 26.5, 0.11 20.56, 0 11.25 M0 33.75 C0.71 24.48, 0.41 15.71, 0 11.25 M0 11.25 C1.33 2.37, 5.56 1.15, 11.25 0 M0 11.25 C-2.21 4.05, 4.44 1.72, 11.25 0" stroke="#1e1e1e" stroke-width="2" fill="none"></path></g><g stroke-linecap="round" transform="translate(390.00000000000136 530.0000000000018) rotate(360 70 22.5)"><path d="M11.25 0 C47.88 1.02, 80.73 3.6, 128.75 0 C137.91 -2.51, 137.53 5.55, 140 11.25 C141.13 13.37, 141.19 20.91, 140 33.75 C141.3 41.94, 135.48 46.18, 128.75 45 C84.59 46.74, 48 48.85, 11.25 45 C5.87 41.88, 2.13 40.47, 0 33.75 C1.03 28.82, 2.59 22.51, 0 11.25 C-2.84 2.46, 5.68 3.58, 11.25 0" stroke="none" stroke-width="0" fill="#ebfbee"></path><path d="M11.25 0 C36.43 -1.03, 63.44 0.16, 128.75 0 M11.25 0 C57.76 -0.44, 102.98 -0.06, 128.75 0 M128.75 0 C137.41 0.42, 141.12 3.66, 140 11.25 M128.75 0 C138.39 0.72, 138.01 2.96, 140 11.25 M140 11.25 C138.95 20.83, 138.47 26.8, 140 33.75 M140 11.25 C140.66 18.31, 140.62 23.12, 140 33.75 M140 33.75 C141.99 41.33, 136.96 45.99, 128.75 45 M140 33.75 C140.46 39.32, 135.95 46.04, 128.75 45 M128.75 45 C92.27 44.01, 55.77 43.3, 11.25 45 M128.75 45 C93.11 44.04, 56.23 44.4, 11.25 45 M11.25 45 C5.06 45.48, 1.26 39.89, 0 33.75 M11.25 45 C3.71 46.65, 0.74 42.43, 0 33.75 M0 33.75 C1.95 28.78, -1.83 23.15, 0 11.25 M0 33.75 C0.54 26.97, 0.78 22.14, 0 11.25 M0 11.25 C-1.92 4.01, 4.35 1.5, 11.25 0 M0 11.25 C1.72 4.18, 5.25 -0.44, 11.25 0" stroke="#1e1e1e" stroke-width="2" fill="none"></path></g><g stroke-linecap="round" transform="translate(551.3618235855452 349.9999999999982) rotate(360 150 20)"><path d="M0 0 C0 0, 0 0, 0 0 M0 0 C0 0, 0 0, 0 0 M0.13 12.04 C4.57 9.51, 4.64 5.28, 10.63 -0.03 M0.13 12.04 C3.66 8.5, 6.82 3.89, 10.63 -0.03 M0.27 24.08 C4.7 19.7, 10.75 14.24, 21.26 -0.07 M0.27 24.08 C4.49 18.76, 10.39 13.13, 21.26 -0.07 M-0.26 36.88 C7.43 29.16, 13.35 21.29, 31.89 -0.1 M-0.26 36.88 C10.71 23.44, 23.67 10.82, 31.89 -0.1 M4.47 43.64 C18.07 26.02, 31.49 10.83, 42.52 -0.14 M4.47 43.64 C16.41 28.36, 28.85 15.47, 42.52 -0.14 M15.1 43.6 C32.49 24.55, 45.92 8.99, 53.15 -0.17 M15.1 43.6 C30.57 27.07, 43.75 9.98, 53.15 -0.17 M25.73 43.57 C34.64 30.83, 42.81 23.37, 63.78 -0.21 M25.73 43.57 C40.34 26.77, 54.13 10.87, 63.78 -0.21 M36.36 43.53 C48.77 27.88, 63.91 12.2, 74.41 -0.24 M36.36 43.53 C47.18 29.88, 58.6 16.7, 74.41 -0.24 M46.99 43.5 C57.07 34.95, 61.98 22.46, 85.04 -0.28 M46.99 43.5 C58.35 30.8, 68.76 18.12, 85.04 -0.28 M57.62 43.46 C71.21 26.75, 85.92 11.98, 95.67 -0.31 M57.62 43.46 C69.59 27.28, 82.9 13.64, 95.67 -0.31 M68.25 43.43 C75.71 32.89, 85.81 23.53, 106.3 -0.34 M68.25 43.43 C81.05 30.36, 92.45 17.15, 106.3 -0.34 M78.22 44.15 C90.11 30.62, 104.23 15.61, 116.27 0.38 M78.22 44.15 C88.85 32.22, 97.38 21.98, 116.27 0.38 M88.85 44.11 C103.83 25.52, 116.44 9.02, 126.91 0.34 M88.85 44.11 C96.41 34.41, 104.44 25.44, 126.91 0.34 M99.48 44.08 C107.59 30.76, 121.33 20.78, 137.54 0.31 M99.48 44.08 C112.26 27.94, 125.23 13.89, 137.54 0.31 M110.11 44.04 C124.05 28.29, 133 14.82, 148.17 0.27 M110.11 44.04 C121.26 30.25, 133.06 17.55, 148.17 0.27 M120.74 44.01 C135.77 29.59, 148.16 12.96, 158.8 0.24 M120.74 44.01 C129.27 35.8, 138.34 24.97, 158.8 0.24 M131.37 43.98 C140.75 31.06, 153.95 18.33, 169.43 0.2 M131.37 43.98 C139.1 34.77, 147.83 24.91, 169.43 0.2 M142 43.94 C156.19 28.84, 168.66 11.81, 180.06 0.17 M142 43.94 C151.02 34.19, 160.14 23.84, 180.06 0.17 M152.63 43.91 C165.07 29.5, 175.77 16.87, 190.69 0.13 M152.63 43.91 C164.59 29.66, 177.31 17.76, 190.69 0.13 M163.26 43.87 C171.73 33.43, 182.54 20.78, 201.32 0.1 M163.26 43.87 C172.39 33.39, 181.94 21.49, 201.32 0.1 M173.89 43.84 C185.87 31.16, 195.45 17.04, 211.95 0.06 M173.89 43.84 C184.8 31.46, 196.96 18.44, 211.95 0.06 M184.52 43.8 C198.25 27.79, 212.49 14.7, 222.58 0.03 M184.52 43.8 C195.95 29.69, 209.72 15.22, 222.58 0.03 M195.15 43.77 C204.91 35.72, 213.67 22.91, 233.21 0 M195.15 43.77 C210.82 27.04, 224.51 10.37, 233.21 0 M205.78 43.73 C217.62 31.31, 227.23 18.97, 243.84 -0.04 M205.78 43.73 C219.96 27.51, 232.59 11.45, 243.84 -0.04 M216.41 43.7 C225.28 32.68, 234.89 24.98, 254.47 -0.07 M216.41 43.7 C229.96 27.84, 244.09 12.06, 254.47 -0.07 M227.04 43.67 C240.3 30.15, 249.68 16.89, 265.1 -0.11 M227.04 43.67 C236.54 31.85, 246.85 22.17, 265.1 -0.11 M237.67 43.63 C251.78 26.67, 264.1 10.28, 275.73 -0.14 M237.67 43.63 C250.63 29.88, 261.49 16.1, 275.73 -0.14 M248.3 43.6 C258.35 34.37, 267.97 22.53, 286.36 -0.18 M248.3 43.6 C257.36 35.23, 264.96 24.43, 286.36 -0.18 M258.94 43.56 C270.02 31.19, 282.64 17.56, 296.99 -0.21 M258.94 43.56 C268.9 33.49, 277.58 22.41, 296.99 -0.21 M269.57 43.53 C277.65 31.2, 289.2 20.01, 304.34 3.53 M269.57 43.53 C283.21 28.21, 294.68 13.73, 304.34 3.53 M280.2 43.49 C290.01 32.7, 300.07 19.18, 304.47 15.57 M280.2 43.49 C288.66 34.11, 295.63 25.3, 304.47 15.57 M290.83 43.46 C293.77 38.33, 300.34 31.75, 303.95 28.36 M290.83 43.46 C294.58 41.28, 295.66 37.15, 303.95 28.36" stroke="#1e1e1e" stroke-width="1" fill="none"></path><path d="M0 0 C76.02 1.07, 149.11 1.05, 300 0 M0 0 C69.15 0.89, 137.86 0.7, 300 0 M300 0 C299.44 17.36, 300.07 29.86, 300 40 M300 0 C299.38 9.72, 299.7 19.66, 300 40 M300 40 C185.79 43.07, 73.9 42.14, 0 40 M300 40 C195.03 38.49, 90.27 37.61, 0 40 M0 40 C-1.52 25.9, 0.3 16.9, 0 0 M0 40 C-0.64 30.62, 0.5 21.21, 0 0" stroke="#1e1e1e" stroke-width="2" fill="none"></path></g><g stroke-linecap="round" transform="translate(550.0000000000005 409.9999999999982) rotate(360 150 20)"><path d="M0 0 C0 0, 0 0, 0 0 M0 0 C0 0, 0 0, 0 0 M0.13 12.04 C0.91 9.4, 5.35 7.6, 10.63 -0.03 M0.13 12.04 C3.89 7.35, 7.33 2.29, 10.63 -0.03 M0.27 24.08 C9.36 15.72, 14.86 4.26, 21.26 -0.07 M0.27 24.08 C8.08 15.83, 14.34 7.4, 21.26 -0.07 M-0.26 36.88 C8.52 26.72, 19.43 14.7, 31.89 -0.1 M-0.26 36.88 C13.05 23.43, 24.97 7.92, 31.89 -0.1 M7.09 40.62 C19.24 25.11, 33.12 11.6, 42.52 -0.14 M7.09 40.62 C19.95 26.43, 34.34 10.09, 42.52 -0.14 M17.72 40.58 C29.52 27.43, 43.19 12.55, 53.15 -0.17 M17.72 40.58 C30.62 24.73, 44.41 8.37, 53.15 -0.17 M28.35 40.55 C40.95 26.15, 57.67 9.99, 63.78 -0.21 M28.35 40.55 C37.17 30.39, 46.53 19.75, 63.78 -0.21 M38.98 40.51 C50.17 28.09, 60.52 15.89, 74.41 -0.24 M38.98 40.51 C47.62 29.66, 56.88 20, 74.41 -0.24 M49.61 40.48 C58.89 25.67, 72.28 13.83, 85.04 -0.28 M49.61 40.48 C62.4 25.5, 76.61 10.91, 85.04 -0.28 M60.24 40.44 C68.81 32.06, 78.88 21.32, 95.67 -0.31 M60.24 40.44 C73.26 26, 86.42 10.05, 95.67 -0.31 M70.87 40.41 C84.03 26.12, 98.86 8.47, 106.3 -0.34 M70.87 40.41 C78.96 31.8, 87.15 21.48, 106.3 -0.34 M81.5 40.37 C90.18 31.53, 97.95 20.85, 116.27 0.38 M81.5 40.37 C89.26 31.08, 99.36 20.3, 116.27 0.38 M92.13 40.34 C102.63 25.15, 115.09 12.3, 126.91 0.34 M92.13 40.34 C100.4 30.37, 109.78 20.75, 126.91 0.34 M102.76 40.31 C115.67 28.33, 125.37 16.92, 137.54 0.31 M102.76 40.31 C114.2 27.32, 126.35 13.19, 137.54 0.31 M113.39 40.27 C124.85 24.14, 140.35 7.61, 148.17 0.27 M113.39 40.27 C120.55 31.84, 129.19 24.12, 148.17 0.27 M124.02 40.24 C132.25 30.79, 137.84 20.21, 158.8 0.24 M124.02 40.24 C132.22 30.97, 138.57 22.69, 158.8 0.24 M134.65 40.2 C143.15 30.77, 148.44 21.18, 169.43 0.2 M134.65 40.2 C141.78 31.52, 149.84 24.87, 169.43 0.2 M145.28 40.17 C156.13 26.55, 169.29 9.78, 180.06 0.17 M145.28 40.17 C159.53 24.41, 171.87 9.32, 180.06 0.17 M155.91 40.13 C168.66 25.2, 178.88 13.22, 190.69 0.13 M155.91 40.13 C165.26 31.55, 172.71 21.7, 190.69 0.13 M165.89 40.85 C173.84 31.17, 183.19 21.69, 201.32 0.1 M165.89 40.85 C176.51 28.02, 187.35 16.18, 201.32 0.1 M176.52 40.82 C190.11 23.37, 204.12 8.67, 211.95 0.06 M176.52 40.82 C187.91 28.82, 198.35 16.56, 211.95 0.06 M187.15 40.78 C202.02 27.16, 214.41 8.65, 222.58 0.03 M187.15 40.78 C200.34 26.33, 210.68 13.87, 222.58 0.03 M197.78 40.75 C206.91 30.1, 216.26 19.61, 233.21 0 M197.78 40.75 C205.81 31.06, 215.46 19.7, 233.21 0 M208.41 40.72 C216.15 31.14, 224.96 22.58, 243.84 -0.04 M208.41 40.72 C221.49 24.34, 235.11 9.61, 243.84 -0.04 M219.04 40.68 C229.04 31.94, 238.89 19.85, 254.47 -0.07 M219.04 40.68 C230.77 27.64, 242.69 12.94, 254.47 -0.07 M229.67 40.65 C235.75 31.99, 242.91 24.46, 265.1 -0.11 M229.67 40.65 C240.65 29.66, 251.42 16.31, 265.1 -0.11 M240.3 40.61 C246.7 30.05, 257.19 19.77, 275.73 -0.14 M240.3 40.61 C249.84 28.7, 259.21 18.15, 275.73 -0.14 M250.93 40.58 C263.94 26.93, 272.71 13.18, 286.36 -0.18 M250.93 40.58 C258.81 30.56, 266.41 22, 286.36 -0.18 M261.56 40.54 C274 27.44, 281.37 16.58, 296.99 -0.21 M261.56 40.54 C275.16 24.89, 288.06 8.05, 296.99 -0.21 M272.19 40.51 C283.72 26.64, 295.7 17.72, 300.4 8.06 M272.19 40.51 C278.87 32.03, 288.38 22.56, 300.4 8.06 M282.82 40.47 C289.57 31.27, 295.67 24.23, 300.53 20.1 M282.82 40.47 C286.95 34.88, 292.18 29.85, 300.53 20.1 M293.45 40.44 C295.91 37.23, 296.8 35.67, 300.67 32.14 M293.45 40.44 C294.96 38.12, 297.27 35.74, 300.67 32.14" stroke="#1e1e1e" stroke-width="1" fill="none"></path><path d="M0 0 C92.16 -0.65, 183.97 -1.31, 300 0 M0 0 C80.41 -0.49, 160.69 -0.23, 300 0 M300 0 C299.81 6.96, 298.82 18.06, 300 40 M300 0 C299.18 8.8, 300.44 18.65, 300 40 M300 40 C188.04 42.71, 76.7 42.48, 0 40 M300 40 C235.17 40.44, 170.36 40.68, 0 40 M0 40 C0.47 31.67, -0.9 21.07, 0 0 M0 40 C0.85 29.17, 0.83 17.18, 0 0" stroke="#1e1e1e" stroke-width="2" fill="none"></path></g><g stroke-linecap="round" transform="translate(550.0000000000005 470) rotate(360 150 20)"><path d="M0 0 C0 0, 0 0, 0 0 M0 0 C0 0, 0 0, 0 0 M0.13 12.04 C4.48 8.91, 8.95 3.7, 10.63 -0.03 M0.13 12.04 C3.35 7.01, 8.47 3.09, 10.63 -0.03 M0.27 24.08 C6.18 14.06, 16 5.32, 21.26 -0.07 M0.27 24.08 C6.42 16.23, 14.16 8.22, 21.26 -0.07 M-0.26 36.88 C11.22 24.35, 21.94 11.93, 31.89 -0.1 M-0.26 36.88 C9.7 24.67, 19.4 14.16, 31.89 -0.1 M7.09 40.62 C15.36 32, 23.86 22.4, 42.52 -0.14 M7.09 40.62 C16.06 30.61, 23.32 23.33, 42.52 -0.14 M17.72 40.58 C27.49 30.69, 35.75 23.41, 53.15 -0.17 M17.72 40.58 C29.99 25.73, 44.13 11.27, 53.15 -0.17 M28.35 40.55 C37.47 32.9, 42.38 24.58, 63.78 -0.21 M28.35 40.55 C37.41 30.28, 45.42 20.23, 63.78 -0.21 M38.98 40.51 C49.41 28.31, 58.98 15.04, 74.41 -0.24 M38.98 40.51 C47.22 31.15, 56.88 21.66, 74.41 -0.24 M49.61 40.48 C62.97 25.87, 77.76 11.22, 85.04 -0.28 M49.61 40.48 C62.06 27.93, 72.28 13.54, 85.04 -0.28 M60.24 40.44 C71.46 29.46, 82.37 14.84, 95.67 -0.31 M60.24 40.44 C67.26 31.47, 76.11 22.36, 95.67 -0.31 M70.87 40.41 C82.51 26.84, 92.03 15.99, 106.3 -0.34 M70.87 40.41 C83 26.32, 93.88 12.28, 106.3 -0.34 M81.5 40.37 C93.26 26, 105.58 12.89, 116.27 0.38 M81.5 40.37 C90.49 30.74, 98.11 22.12, 116.27 0.38 M92.13 40.34 C98.5 31.79, 106.96 21.57, 126.91 0.34 M92.13 40.34 C101.14 30.6, 110.56 18.73, 126.91 0.34 M102.76 40.31 C110.86 32.49, 118.25 22.59, 137.54 0.31 M102.76 40.31 C110.31 31.36, 118.22 24.39, 137.54 0.31 M113.39 40.27 C121.95 29.43, 128.23 20.15, 148.17 0.27 M113.39 40.27 C121.96 32.13, 128.43 23.38, 148.17 0.27 M124.02 40.24 C134.17 24.88, 146.04 12.7, 158.8 0.24 M124.02 40.24 C137.04 24.54, 149.83 8.54, 158.8 0.24 M134.65 40.2 C142.12 27.96, 151.16 17.36, 169.43 0.2 M134.65 40.2 C145.3 29.99, 154.94 18.02, 169.43 0.2 M145.28 40.17 C157.68 23.66, 174.47 9.48, 180.06 0.17 M145.28 40.17 C156.51 26.91, 168.74 14.02, 180.06 0.17 M155.91 40.13 C163.11 31.43, 169.04 23.66, 190.69 0.13 M155.91 40.13 C162.92 31.97, 170.25 21.57, 190.69 0.13 M165.89 40.85 C178.42 27.21, 192.64 10.08, 201.32 0.1 M165.89 40.85 C178.59 26.59, 192.41 12.21, 201.32 0.1 M176.52 40.82 C187.49 28.39, 198.64 15.06, 211.95 0.06 M176.52 40.82 C189.18 26.7, 201.93 12.35, 211.95 0.06 M187.15 40.78 C197.16 27.89, 207.56 15.81, 222.58 0.03 M187.15 40.78 C196.23 29.91, 206.38 18.33, 222.58 0.03 M197.78 40.75 C213.54 23.23, 224.88 9.26, 233.21 0 M197.78 40.75 C209.55 26.9, 220.61 14.26, 233.21 0 M208.41 40.72 C219.22 29.44, 229.53 19.54, 243.84 -0.04 M208.41 40.72 C217.85 30.08, 227.98 18.26, 243.84 -0.04 M219.04 40.68 C229.35 30.22, 237.78 18.72, 254.47 -0.07 M219.04 40.68 C230.84 26.4, 241.52 14.26, 254.47 -0.07 M229.67 40.65 C238.62 29.91, 249.1 18.17, 265.1 -0.11 M229.67 40.65 C238.52 30.34, 245.49 21.11, 265.1 -0.11 M240.3 40.61 C249.77 28.75, 258.11 21.99, 275.73 -0.14 M240.3 40.61 C249.15 30.22, 259.5 19.63, 275.73 -0.14 M250.93 40.58 C262.22 25.38, 275.66 11.77, 286.36 -0.18 M250.93 40.58 C264.15 25.37, 277.71 9.93, 286.36 -0.18 M261.56 40.54 C270.85 28.47, 284.58 17.42, 296.99 -0.21 M261.56 40.54 C274.51 24.06, 289.04 8.77, 296.99 -0.21 M272.19 40.51 C280.44 34.93, 285.14 26.97, 300.4 8.06 M272.19 40.51 C281.07 31.42, 288.28 22.85, 300.4 8.06 M282.82 40.47 C288.84 32.26, 293.27 28.49, 300.53 20.1 M282.82 40.47 C287.55 35.34, 291.33 29.99, 300.53 20.1 M293.45 40.44 C294.63 38.12, 297.49 36.57, 300.67 32.14 M293.45 40.44 C296.33 37.05, 299.13 34.04, 300.67 32.14" stroke="#1e1e1e" stroke-width="1" fill="none"></path><path d="M0 0 C114.66 -1.27, 230.91 -0.99, 300 0 M0 0 C96.91 0.33, 191.82 -0.16, 300 0 M300 0 C298.94 16.26, 298.47 28.91, 300 40 M300 0 C300.57 11.98, 300.54 21.71, 300 40 M300 40 C180.87 41.08, 59.06 40.59, 0 40 M300 40 C196.55 38.06, 92.6 37.74, 0 40 M0 40 C-1.27 32.35, -0.49 22.19, 0 0 M0 40 C0.37 26.78, -0.28 15.64, 0 0" stroke="#1e1e1e" stroke-width="2" fill="none"></path></g><g stroke-linecap="round" transform="translate(550.0000000000041 530.0000000000005) rotate(360 150 19.999999999999773)"><path d="M0 0 C0 0, 0 0, 0 0 M0 0 C0 0, 0 0, 0 0 M0.13 12.04 C4.58 8.48, 7.71 4.09, 10.63 -0.03 M0.13 12.04 C3.88 8.51, 6.7 5.62, 10.63 -0.03 M0.27 24.08 C8.7 14.31, 15.66 8.08, 21.26 -0.07 M0.27 24.08 C7.24 16.47, 14.4 7.99, 21.26 -0.07 M-0.26 36.88 C11.82 23.44, 20.96 14.1, 31.89 -0.1 M-0.26 36.88 C11.69 23.63, 21.83 10.2, 31.89 -0.1 M7.09 40.62 C16.9 29.93, 22.51 20.24, 42.52 -0.14 M7.09 40.62 C19.63 27.41, 31.04 12.11, 42.52 -0.14 M17.72 40.58 C30.71 29.01, 41.58 12.98, 53.15 -0.17 M17.72 40.58 C30.32 27.32, 39.93 13.66, 53.15 -0.17 M28.35 40.55 C39.92 26.78, 52.54 11.11, 63.78 -0.21 M28.35 40.55 C38.42 28.21, 48.66 17.18, 63.78 -0.21 M38.98 40.51 C48.37 27.31, 58.28 15.37, 74.41 -0.24 M38.98 40.51 C48.41 31.04, 57.68 19.04, 74.41 -0.24 M49.61 40.48 C59.59 31.44, 67.17 20.43, 85.04 -0.28 M49.61 40.48 C60.35 26.59, 72.33 13.36, 85.04 -0.28 M60.24 40.44 C75.26 22.83, 85.7 7.59, 95.67 -0.31 M60.24 40.44 C73.54 25.61, 85.03 12.06, 95.67 -0.31 M70.87 40.41 C82.68 26.83, 98.08 10.55, 106.3 -0.34 M70.87 40.41 C83.69 24.3, 98.39 9.29, 106.3 -0.34 M81.5 40.37 C93.07 27.6, 105.06 10.56, 116.27 0.38 M81.5 40.37 C93.61 26.92, 104.17 12.24, 116.27 0.38 M92.13 40.34 C99.79 29.55, 108.1 19.7, 126.91 0.34 M92.13 40.34 C103.06 26.92, 112.89 16.39, 126.91 0.34 M102.76 40.31 C113.77 27.83, 121.68 15.49, 137.54 0.31 M102.76 40.31 C114.38 28.82, 123.61 14.75, 137.54 0.31 M113.39 40.27 C120.78 28.43, 130.07 18.32, 148.17 0.27 M113.39 40.27 C122.45 29.42, 133.61 17.34, 148.17 0.27 M124.02 40.24 C132.72 28.82, 146.39 18.91, 158.8 0.24 M124.02 40.24 C131.87 29.6, 140.98 20.83, 158.8 0.24 M134.65 40.2 C142.04 28.53, 152.6 19.34, 169.43 0.2 M134.65 40.2 C143.13 30.62, 151.48 20.28, 169.43 0.2 M145.28 40.17 C160.15 26.22, 172.02 12.65, 180.06 0.17 M145.28 40.17 C155.5 29.62, 164.11 18.23, 180.06 0.17 M155.91 40.13 C161.76 32.11, 168.21 25.79, 190.69 0.13 M155.91 40.13 C169.16 23.34, 183.98 7.83, 190.69 0.13 M165.89 40.85 C178.34 26.3, 191.63 12.14, 201.32 0.1 M165.89 40.85 C176.69 30.06, 185.67 18.11, 201.32 0.1 M176.52 40.82 C184.81 30.71, 194.12 23.1, 211.95 0.06 M176.52 40.82 C189.11 27.2, 200.08 13.88, 211.95 0.06 M187.15 40.78 C201.76 23.26, 214.68 10.74, 222.58 0.03 M187.15 40.78 C194.63 32.14, 204.06 23.06, 222.58 0.03 M197.78 40.75 C206.03 30.86, 217.04 17.42, 233.21 0 M197.78 40.75 C210.53 25.91, 224.52 9.93, 233.21 0 M208.41 40.72 C219.37 30.91, 226.6 18.08, 243.84 -0.04 M208.41 40.72 C216.76 30.85, 225.19 21.42, 243.84 -0.04 M219.04 40.68 C233.17 24.13, 246.92 8.66, 254.47 -0.07 M219.04 40.68 C230.68 27.07, 244 11.44, 254.47 -0.07 M229.67 40.65 C239.58 28.99, 248.17 18.87, 265.1 -0.11 M229.67 40.65 C242.38 25.01, 256.19 8.41, 265.1 -0.11 M240.3 40.61 C248.48 32.68, 256.82 21.04, 275.73 -0.14 M240.3 40.61 C249.28 31.33, 258.09 21.88, 275.73 -0.14 M250.93 40.58 C260.8 29.61, 274.9 15.71, 286.36 -0.18 M250.93 40.58 C259.64 30.68, 268.42 21.56, 286.36 -0.18 M261.56 40.54 C272.37 31.99, 281.18 20.77, 296.99 -0.21 M261.56 40.54 C274 26.83, 284.03 14.69, 296.99 -0.21 M272.19 40.51 C277.68 34.84, 283.86 24.3, 300.4 8.06 M272.19 40.51 C281.86 29.73, 291.02 19.04, 300.4 8.06 M282.82 40.47 C285.44 37.5, 288.7 31.88, 300.53 20.1 M282.82 40.47 C287.1 34.66, 291.57 30.63, 300.53 20.1 M293.45 40.44 C294.9 39.61, 297.93 35.83, 300.67 32.14 M293.45 40.44 C295.53 38.13, 298.2 35.44, 300.67 32.14" stroke="#1e1e1e" stroke-width="1" fill="none"></path><path d="M0 0 C114.68 -0.01, 230.65 -0.04, 300 0 M0 0 C88.07 -0.94, 178.01 -0.71, 300 0 M300 0 C298.27 7.2, 299.41 16.69, 300 40 M300 0 C301.04 10.62, 301.3 22.82, 300 40 M300 40 C198.1 40.25, 99.31 40.49, 0 40 M300 40 C231.91 38.46, 163.96 39.13, 0 40 M0 40 C-0.22 23.99, 0.52 11.24, 0 0 M0 40 C-0.27 27.76, 0.07 14.6, 0 0" stroke="#1e1e1e" stroke-width="2" fill="none"></path></g><g stroke-linecap="round" transform="translate(-29.319088207227196 89.31908820722674) rotate(270 69.3190882072272 10)"><path d="M5 0 C33.88 3.66, 57.23 4.28, 133.64 0 C136.9 1.32, 140.45 3.47, 138.64 5 C138.35 8.61, 136.87 12.43, 138.64 15 C136.18 18.7, 136.71 18.75, 133.64 20 C87.68 15.51, 38.95 17.72, 5 20 C2.8 16.88, -2.18 20.6, 0 15 C1.63 11.65, 0.18 8.54, 0 5 C3.45 0.98, 4.04 -0.53, 5 0" stroke="none" stroke-width="0" fill="#b2f2bb"></path><path d="M5 0 C55.97 1.11, 107.97 1.31, 133.64 0 M5 0 C34.85 -0.7, 67.05 1.18, 133.64 0 M133.64 0 C135.73 1.06, 139.06 3.08, 138.64 5 M133.64 0 C135.37 2.05, 137.59 0.69, 138.64 5 M138.64 5 C138.47 7.29, 138.1 10.06, 138.64 15 M138.64 5 C138.52 6.58, 139.03 8.79, 138.64 15 M138.64 15 C139.77 16.39, 136.96 21.09, 133.64 20 M138.64 15 C140.37 18.03, 137.55 22.1, 133.64 20 M133.64 20 C105.44 19.91, 80.02 22.52, 5 20 M133.64 20 C85.37 19.61, 34.87 19.81, 5 20 M5 20 C0.43 18.1, -0.41 17.77, 0 15 M5 20 C2.33 19.16, -1.91 17.77, 0 15 M0 15 C0.35 13.39, 0.68 10.1, 0 5 M0 15 C-0.53 12.37, 0.18 8.84, 0 5 M0 5 C0.37 3.1, -0.25 -0.55, 5 0 M0 5 C1.19 3.85, 2.14 -0.03, 5 0" stroke="#1e1e1e" stroke-width="2" fill="none"></path></g><g stroke-linecap="round" transform="translate(51.361823585543334 88.63817641445621) rotate(270 68.63817641445576 9.999999999999545)"><path d="M5 0 C30.24 1.3, 61.63 0.13, 132.28 0 C137.42 1.8, 136.63 0.77, 137.28 5 C135.53 8.93, 136.02 9.48, 137.28 15 C137.01 17.09, 138.1 22.77, 132.28 20 C102.12 17.16, 72.45 14.91, 5 20 C-0.51 22.27, -0.07 19.91, 0 15 C0.09 11.8, 1.56 9.25, 0 5 C2.37 1.14, 2.45 -0.86, 5 0" stroke="none" stroke-width="0" fill="#69db7c"></path><path d="M5 0 C50.05 0.81, 91.77 -1.05, 132.28 0 M5 0 C41.65 2.13, 76.41 1.7, 132.28 0 M132.28 0 C136.03 1.42, 135.88 3.45, 137.28 5 M132.28 0 C134.56 -0.98, 137.02 3.95, 137.28 5 M137.28 5 C136.61 8.04, 136.29 11.95, 137.28 15 M137.28 5 C137.71 7.89, 137.55 10.9, 137.28 15 M137.28 15 C137.27 19.42, 137.12 19.74, 132.28 20 M137.28 15 C137.86 20.43, 133.56 20.45, 132.28 20 M132.28 20 C88.17 21.38, 44.48 18.75, 5 20 M132.28 20 C91.22 18.72, 50.16 18.23, 5 20 M5 20 C1.26 19.43, 0.58 17.61, 0 15 M5 20 C-0.24 19.44, -2.12 19.48, 0 15 M0 15 C0.69 10.9, 0.05 8.74, 0 5 M0 15 C0.32 12.93, 0.19 11.18, 0 5 M0 5 C-1.92 1.12, 2.7 1.9, 5 0 M0 5 C0.48 1.63, -0.28 1.84, 5 0" stroke="#1e1e1e" stroke-width="2" fill="none"></path></g><g stroke-linecap="round" transform="translate(10.000000000000455 89.99999999999909) rotate(270 70.00000000000045 10.000000000000455)"><path d="M5 0 C50.68 -0.3, 98.31 0.18, 135 0 C137.69 -0.89, 136.93 1.19, 140 5 C138.6 8.62, 139.7 11.25, 140 15 C142.5 21.11, 136.16 21.55, 135 20 C108.27 16.31, 77.1 21.7, 5 20 C1.6 21.57, -1.07 21.75, 0 15 C1.7 11.86, 1.16 9.14, 0 5 C0.79 0.81, 0.56 0.62, 5 0" stroke="none" stroke-width="0" fill="#e9ecef"></path><path d="M5 0 C53.83 -1.2, 104.77 -2.95, 135 0 M5 0 C31.37 -0.71, 59.2 -0.53, 135 0 M135 0 C136.94 1.78, 139.09 0.82, 140 5 M135 0 C138.07 2.29, 141.74 1.05, 140 5 M140 5 C138.98 6.84, 140.13 9.67, 140 15 M140 5 C140.37 6.58, 140.09 9.4, 140 15 M140 15 C141.51 18.07, 138.84 21.83, 135 20 M140 15 C137.95 18.78, 139.52 18.75, 135 20 M135 20 C102.52 20.43, 67.14 23.12, 5 20 M135 20 C103.82 18.47, 73.67 19.13, 5 20 M5 20 C2.25 19.27, -1.66 17.84, 0 15 M5 20 C-0.45 21.15, 0.85 19.26, 0 15 M0 15 C0.02 12.01, -0.99 7.1, 0 5 M0 15 C0.05 11.43, -0.52 7.01, 0 5 M0 5 C1.04 3.56, 2.08 -0.03, 5 0 M0 5 C-1.95 3.51, -0.11 0.77, 5 0" stroke="#1e1e1e" stroke-width="2" fill="none"></path></g><g stroke-linecap="round" transform="translate(11.361823585545153 488.6381764144544) rotate(270 68.63817641445485 10)"><path d="M5 0 C34.39 -0.44, 56.9 -4.24, 132.28 0 C138.49 -2.78, 138.48 3.54, 137.28 5 C138.06 8.04, 138.3 8.94, 137.28 15 C136.38 15.27, 135.13 21.57, 132.28 20 C106.62 18.17, 78.99 20.93, 5 20 C4.44 17.82, 1.55 15.25, 0 15 C-1.52 10.82, 1.18 8.79, 0 5 C1.57 0.6, 5.08 -0.73, 5 0" stroke="none" stroke-width="0" fill="#ffc9c9"></path><path d="M5 0 C41.7 1.95, 74.23 2.59, 132.28 0 M5 0 C43.15 0.52, 80.55 -0.62, 132.28 0 M132.28 0 C135.64 -0.34, 135.56 -0.18, 137.28 5 M132.28 0 C137.07 2.2, 135.84 2.88, 137.28 5 M137.28 5 C138.24 7.75, 136.92 11.3, 137.28 15 M137.28 5 C137.05 8.67, 136.99 12.51, 137.28 15 M137.28 15 C136.15 18.72, 135.35 18.13, 132.28 20 M137.28 15 C139.34 16.94, 136.92 17.77, 132.28 20 M132.28 20 C93.9 21.47, 57.88 19.18, 5 20 M132.28 20 C91.25 19.62, 51.9 20.14, 5 20 M5 20 C0.89 20.4, 1.92 17.04, 0 15 M5 20 C0.96 18.96, -1.42 16.15, 0 15 M0 15 C-0.34 11.37, -0.22 8.49, 0 5 M0 15 C0.2 11.86, -0.4 8.04, 0 5 M0 5 C0.96 -0.16, -0.26 1.85, 5 0 M0 5 C1.04 1.76, 2.1 1.65, 5 0" stroke="#1e1e1e" stroke-width="2" fill="none"></path></g><g stroke-linecap="round" transform="translate(-28.638176414456666 488.6381764144562) rotate(270 68.63817641445576 9.999999999999545)"><path d="M5 0 C48.7 -0.84, 87.84 3.81, 132.28 0 C132.49 2.49, 137.2 2.99, 137.28 5 C136.92 6.97, 137.13 12.79, 137.28 15 C133.84 21.91, 133.15 20.36, 132.28 20 C97.8 19.41, 59.32 18.5, 5 20 C1.99 19.12, 1.13 15.21, 0 15 C0.67 12.07, 1.6 9.84, 0 5 C0.52 0.68, 5.12 -0.68, 5 0" stroke="none" stroke-width="0" fill="#a5d8ff"></path><path d="M5 0 C51.2 -0.31, 97.68 0.48, 132.28 0 M5 0 C49.89 0.61, 93.89 -0.14, 132.28 0 M132.28 0 C136.88 1.91, 136.03 2.73, 137.28 5 M132.28 0 C136.09 1.63, 135.68 3.72, 137.28 5 M137.28 5 C138.23 8.3, 136.97 9.49, 137.28 15 M137.28 5 C136.92 7.46, 137.14 9.25, 137.28 15 M137.28 15 C139.07 17.12, 136.75 18.06, 132.28 20 M137.28 15 C137.26 19.58, 137.34 19.7, 132.28 20 M132.28 20 C91.26 19.89, 48.38 18.12, 5 20 M132.28 20 C89.78 21.25, 49.01 20.4, 5 20 M5 20 C1.05 19.1, -1.23 16.44, 0 15 M5 20 C1.2 19.35, 0.67 17.5, 0 15 M0 15 C0.52 13.2, 0.43 11.13, 0 5 M0 15 C0.31 10.82, -0.41 8.01, 0 5 M0 5 C0.91 1.74, 2.04 1.43, 5 0 M0 5 C-2.21 1.04, 2.86 2.18, 5 0" stroke="#1e1e1e" stroke-width="2" fill="none"></path></g><g stroke-linecap="round" transform="translate(50.000000000000455 489.9999999999991) rotate(270 69.99999999999955 10)"><path d="M5 0 C48.12 -2.06, 89.47 -1.65, 135 0 C139.91 -3.44, 143.57 -0.79, 140 5 C141.23 9.49, 138.9 11.98, 140 15 C136.92 18.66, 137.45 21.13, 135 20 C107.21 23.05, 78.49 24.89, 5 20 C0.93 20.52, -0.99 21.79, 0 15 C0.27 11.76, -0.67 9.69, 0 5 C-1.46 -1.65, 2.64 1.63, 5 0" stroke="none" stroke-width="0" fill="#f3f0ff"></path><path d="M5 0 C42.34 2.39, 85.29 -0.13, 135 0 M5 0 C50.19 -0.03, 96.31 -1.35, 135 0 M135 0 C138.11 1.99, 141.51 1.13, 140 5 M135 0 C136.96 -1.48, 138.35 -0.53, 140 5 M140 5 C139.08 8.34, 139.41 10.45, 140 15 M140 5 C140.38 6.96, 140.13 9.52, 140 15 M140 15 C138.22 18.72, 139.36 18.92, 135 20 M140 15 C139.14 19.04, 140.47 21.9, 135 20 M135 20 C99.72 20.63, 66.13 20.01, 5 20 M135 20 C108.62 19.27, 80.83 19.39, 5 20 M5 20 C-0.17 21, 0.74 19.14, 0 15 M5 20 C2.74 21.67, -1.69 18.54, 0 15 M0 15 C1.02 11.97, 0.13 8.23, 0 5 M0 15 C0.36 11.76, 0.2 7.56, 0 5 M0 5 C-1.7 3.27, 0.12 0.67, 5 0 M0 5 C1.19 -0.33, 3.26 -0.05, 5 0" stroke="#1e1e1e" stroke-width="2" fill="none"></path></g><g stroke-linecap="round" transform="translate(-29.319088207228106 290.0000000000009) rotate(270 69.3190882072272 9.999999999999545)"><path d="M5 0 C50.21 -3.53, 98.4 -3.26, 133.64 0 C138.17 1.87, 135.52 4.16, 138.64 5 C139.6 7.66, 138.26 9.43, 138.64 15 C138.16 19.91, 133.53 23.57, 133.64 20 C102.57 22.33, 76.78 17.65, 5 20 C3.22 16.92, 0.33 17.45, 0 15 C1.29 11.65, 0.94 7.84, 0 5 C3.42 0.93, 2.19 -0.99, 5 0" stroke="none" stroke-width="0" fill="#fcc2d7"></path><path d="M5 0 C35.17 1.1, 68.59 0.09, 133.64 0 M5 0 C44.57 -1.29, 82.27 -0.85, 133.64 0 M133.64 0 C135.26 -1.85, 139.91 3.58, 138.64 5 M133.64 0 C135.54 1.22, 139.12 3.3, 138.64 5 M138.64 5 C138.3 7.19, 139.72 10.36, 138.64 15 M138.64 5 C138.22 7.25, 138.3 10.56, 138.64 15 M138.64 15 C138.37 16.46, 138.77 18.79, 133.64 20 M138.64 15 C139.94 16.1, 136.96 21.25, 133.64 20 M133.64 20 C87.18 18.54, 37.45 21.35, 5 20 M133.64 20 C102.94 21.22, 70 20.6, 5 20 M5 20 C3.58 18.7, -0.61 17.43, 0 15 M5 20 C0.25 17.82, -0.47 17.68, 0 15 M0 15 C-0.21 10.79, 0.54 8.79, 0 5 M0 15 C-0.41 11.64, 0.19 7.74, 0 5 M0 5 C-1.92 3.52, 2.57 0.08, 5 0 M0 5 C0.43 3.31, -0.54 -0.63, 5 0" stroke="#1e1e1e" stroke-width="2" fill="none"></path></g><g stroke-linecap="round" transform="translate(10.680911792771894 289.31908820722856) rotate(270 69.3190882072281 10.000000000000455)"><path d="M5 0 C54.3 0.95, 99.32 -1.74, 133.64 0 C133.9 -0.48, 140.21 -1.77, 138.64 5 C138.38 8.37, 139.76 14.37, 138.64 15 C136.46 19.88, 133.89 20.33, 133.64 20 C96.01 20.26, 62.67 19.56, 5 20 C0.6 23.42, -0.73 18.86, 0 15 C1.01 12.01, 0.22 9.12, 0 5 C-1.11 2.29, 0.21 -3.32, 5 0" stroke="none" stroke-width="0" fill="#eaddd7"></path><path d="M5 0 C55.45 -1.73, 104.74 1.25, 133.64 0 M5 0 C56.11 0.03, 106.1 0.21, 133.64 0 M133.64 0 C136.06 -0.85, 138.41 3.65, 138.64 5 M133.64 0 C138.71 -0.62, 137.26 0.19, 138.64 5 M138.64 5 C138.74 7.15, 137.61 10.46, 138.64 15 M138.64 5 C138.69 7.67, 139.07 9.72, 138.64 15 M138.64 15 C139.14 20.16, 135.19 20.39, 133.64 20 M138.64 15 C139.82 17.09, 136.11 20.71, 133.64 20 M133.64 20 C83.51 21.42, 31.29 18.89, 5 20 M133.64 20 C100.64 18.5, 68.33 18.42, 5 20 M5 20 C0.01 19.51, -1.84 19.33, 0 15 M5 20 C2.51 20.93, 1.07 20.01, 0 15 M0 15 C-0.92 11.77, 0.92 10.93, 0 5 M0 15 C-0.5 11.82, 0.24 9.4, 0 5 M0 5 C0.41 1.64, -0.03 1.6, 5 0 M0 5 C-1.78 2.43, 2.86 -1.99, 5 0" stroke="#1e1e1e" stroke-width="2" fill="none"></path></g><g stroke-linecap="round" transform="translate(50.68091179277371 289.31908820722583) rotate(270 69.3190882072272 10.000000000000455)"><path d="M5 0 C46.95 0.09, 96.61 -2.87, 133.64 0 C140.55 -2.46, 139 1.4, 138.64 5 C137.67 8.43, 137.22 10.47, 138.64 15 C137.76 19.47, 133.85 17.82, 133.64 20 C85.88 24.43, 39.52 21.53, 5 20 C0.68 23.45, -0.68 20.71, 0 15 C-0.59 12.46, -0.77 7.64, 0 5 C0.98 3.3, -0.95 3.15, 5 0" stroke="none" stroke-width="0" fill="#ebfbee"></path><path d="M5 0 C34.47 -2.06, 61.18 -0.4, 133.64 0 M5 0 C52.25 -1.57, 100.31 -0.15, 133.64 0 M133.64 0 C138.48 -0.54, 137.44 0.38, 138.64 5 M133.64 0 C135.32 -2.2, 137.35 2.11, 138.64 5 M138.64 5 C137.94 8.44, 137.57 10.73, 138.64 15 M138.64 5 C138.84 9, 138.27 12.18, 138.64 15 M138.64 15 C139.67 17.25, 136.22 20.62, 133.64 20 M138.64 15 C140.77 20.24, 136.08 20.46, 133.64 20 M133.64 20 C81.81 18.37, 29.89 19.2, 5 20 M133.64 20 C97.86 19.29, 62.82 20.03, 5 20 M5 20 C2.4 20.81, 0.93 19.79, 0 15 M5 20 C-0.03 20.21, 1.1 16.23, 0 15 M0 15 C-0.05 13.15, 0.62 9.96, 0 5 M0 15 C0.05 12.27, -0.48 9.95, 0 5 M0 5 C-1.54 2.33, 2.71 -1.73, 5 0 M0 5 C1.59 1.62, 2.51 1.16, 5 0" stroke="#1e1e1e" stroke-width="2" fill="none"></path></g><g stroke-linecap="round"><g transform="translate(130 290) rotate(0 125.28147166990311 130.9122423963081)"><path d="M0 0 C23.33 20, 98.24 76.36, 140 120 C181.76 163.64, 232.14 238.19, 250.56 261.82 M0 0 C23.33 20, 98.24 76.36, 140 120 C181.76 163.64, 232.14 238.19, 250.56 261.82" stroke="#1e1e1e" stroke-width="2" fill="none"></path></g><g transform="translate(130 290) rotate(0 125.28147166990311 130.9122423963081)"><path d="M229.76 247.96 C234.44 251.08, 239.12 254.19, 250.56 261.82 M229.76 247.96 C237.98 253.44, 246.19 258.91, 250.56 261.82" stroke="#1e1e1e" stroke-width="2" fill="none"></path></g><g transform="translate(130 290) rotate(0 125.28147166990311 130.9122423963081)"><path d="M243.54 237.83 C245.12 243.23, 246.7 248.62, 250.56 261.82 M243.54 237.83 C246.31 247.31, 249.09 256.79, 250.56 261.82" stroke="#1e1e1e" stroke-width="2" fill="none"></path></g></g><mask></mask><g stroke-linecap="round"><g transform="translate(40.21881976222812 230.9457378936322) rotate(0 174.89059011888594 -50.47286894681611)"><path d="M0 0 C26.13 -8.13, 98.51 -31.97, 156.8 -48.79 C215.1 -65.62, 317.62 -92.25, 349.78 -100.95 M0 0 C26.13 -8.13, 98.51 -31.97, 156.8 -48.79 C215.1 -65.62, 317.62 -92.25, 349.78 -100.95" stroke="#1e1e1e" stroke-width="2" fill="none"></path></g><g transform="translate(40.21881976222812 230.9457378936322) rotate(0 174.89059011888594 -50.47286894681611)"><path d="M329.27 -86.65 C334.21 -90.09, 339.15 -93.53, 349.78 -100.95 M329.27 -86.65 C335.01 -90.65, 340.76 -94.65, 349.78 -100.95" stroke="#1e1e1e" stroke-width="2" fill="none"></path></g><g transform="translate(40.21881976222812 230.9457378936322) rotate(0 174.89059011888594 -50.47286894681611)"><path d="M324.88 -103.18 C330.88 -102.64, 336.87 -102.1, 349.78 -100.95 M324.88 -103.18 C331.85 -102.55, 338.82 -101.93, 349.78 -100.95" stroke="#1e1e1e" stroke-width="2" fill="none"></path></g></g><mask></mask><g stroke-linecap="round"><g transform="translate(91.00000000000045 359.58869432632355) rotate(0 148.7408416997082 67.7299718645022)"><path d="M0 0 C22.29 13.84, 84.16 60.46, 133.74 83.04 C183.33 105.61, 270.19 126.72, 297.48 135.46 M0 0 C22.29 13.84, 84.16 60.46, 133.74 83.04 C183.33 105.61, 270.19 126.72, 297.48 135.46" stroke="#1e1e1e" stroke-width="2" fill="none"></path></g><g transform="translate(91.00000000000045 359.58869432632355) rotate(0 148.7408416997082 67.7299718645022)"><path d="M272.54 137.2 C280.66 136.63, 288.78 136.07, 297.48 135.46 M272.54 137.2 C281.32 136.59, 290.11 135.97, 297.48 135.46" stroke="#1e1e1e" stroke-width="2" fill="none"></path></g><g transform="translate(91.00000000000045 359.58869432632355) rotate(0 148.7408416997082 67.7299718645022)"><path d="M277.26 120.76 C283.84 125.55, 290.42 130.33, 297.48 135.46 M277.26 120.76 C284.38 125.94, 291.5 131.11, 297.48 135.46" stroke="#1e1e1e" stroke-width="2" fill="none"></path></g></g><mask></mask><g stroke-linecap="round"><g transform="translate(130 510) rotate(0 130 -70)"><path d="M0 0 C20 -6.67, 76.67 -16.67, 120 -40 C163.33 -63.33, 236.67 -123.33, 260 -140 M0 0 C20 -6.67, 76.67 -16.67, 120 -40 C163.33 -63.33, 236.67 -123.33, 260 -140" stroke="#1e1e1e" stroke-width="2" fill="none"></path></g><g transform="translate(130 510) rotate(0 130 -70)"><path d="M246.45 -118.99 C250.49 -125.24, 254.52 -131.5, 260 -140 M246.45 -118.99 C251.63 -127.01, 256.8 -135.04, 260 -140" stroke="#1e1e1e" stroke-width="2" fill="none"></path></g><g transform="translate(130 510) rotate(0 130 -70)"><path d="M236.12 -132.61 C243.23 -134.81, 250.33 -137.01, 260 -140 M236.12 -132.61 C245.24 -135.43, 254.36 -138.26, 260 -140" stroke="#1e1e1e" stroke-width="2" fill="none"></path></g></g><mask></mask><g stroke-linecap="round"><g transform="translate(90.36993720693522 433.204086335425) rotate(0 151.54086960648044 -60.80736046624952)"><path d="M0 0 C29.94 -7.2, 129.12 -22.93, 179.63 -43.2 C230.14 -63.47, 282.51 -108.55, 303.08 -121.61 M0 0 C29.94 -7.2, 129.12 -22.93, 179.63 -43.2 C230.14 -63.47, 282.51 -108.55, 303.08 -121.61" stroke="#1e1e1e" stroke-width="2" fill="none"></path></g><g transform="translate(90.36993720693522 433.204086335425) rotate(0 151.54086960648044 -60.80736046624952)"><path d="M289.02 -100.95 C292.43 -105.96, 295.85 -110.98, 303.08 -121.61 M289.02 -100.95 C293.93 -108.16, 298.84 -115.38, 303.08 -121.61" stroke="#1e1e1e" stroke-width="2" fill="none"></path></g><g transform="translate(90.36993720693522 433.204086335425) rotate(0 151.54086960648044 -60.80736046624952)"><path d="M279.02 -114.82 C284.86 -116.47, 290.7 -118.12, 303.08 -121.61 M279.02 -114.82 C287.43 -117.19, 295.83 -119.57, 303.08 -121.61" stroke="#1e1e1e" stroke-width="2" fill="none"></path></g></g><mask></mask><g stroke-linecap="round"><g transform="translate(50 428.36358786915343) rotate(0 170 -119.18179393457672)"><path d="M0 0 C31.47 -14.56, 132.15 -47.62, 188.81 -87.35 C245.48 -127.08, 314.8 -213.19, 340 -238.36 M0 0 C31.47 -14.56, 132.15 -47.62, 188.81 -87.35 C245.48 -127.08, 314.8 -213.19, 340 -238.36" stroke="#1e1e1e" stroke-width="2" fill="none"></path></g><g transform="translate(50 428.36358786915343) rotate(0 170 -119.18179393457672)"><path d="M330.48 -215.25 C333.44 -222.43, 336.4 -229.62, 340 -238.36 M330.48 -215.25 C332.71 -220.68, 334.95 -226.11, 340 -238.36" stroke="#1e1e1e" stroke-width="2" fill="none"></path></g><g transform="translate(50 428.36358786915343) rotate(0 170 -119.18179393457672)"><path d="M317.85 -226.78 C324.73 -230.38, 331.62 -233.98, 340 -238.36 M317.85 -226.78 C323.05 -229.5, 328.26 -232.22, 340 -238.36" stroke="#1e1e1e" stroke-width="2" fill="none"></path></g></g><mask></mask><g stroke-linecap="round"><g transform="translate(40.99411485267456 29.57479540357417) rotate(0 169.28441424356492 12.194813878865716)"><path d="M0 0 C26.59 -2.96, 103.14 -24.77, 159.57 -17.75 C216 -10.73, 308.74 32.16, 338.57 42.14 M0 0 C26.59 -2.96, 103.14 -24.77, 159.57 -17.75 C216 -10.73, 308.74 32.16, 338.57 42.14" stroke="#1e1e1e" stroke-width="2" fill="none"></path></g><g transform="translate(40.99411485267456 29.57479540357417) rotate(0 169.28441424356492 12.194813878865716)"><path d="M313.57 41.59 C320.6 41.75, 327.62 41.9, 338.57 42.14 M313.57 41.59 C323.51 41.81, 333.45 42.03, 338.57 42.14" stroke="#1e1e1e" stroke-width="2" fill="none"></path></g><g transform="translate(40.99411485267456 29.57479540357417) rotate(0 169.28441424356492 12.194813878865716)"><path d="M319.78 25.65 C325.05 30.29, 330.33 34.92, 338.57 42.14 M319.78 25.65 C327.25 32.21, 334.72 38.77, 338.57 42.14" stroke="#1e1e1e" stroke-width="2" fill="none"></path></g></g><mask></mask><g stroke-linecap="round"><g transform="translate(90.58815933063624 150.41904914304632) rotate(0 149.29334104595614 139.6909654719925)"><path d="M0 0 C49.76 46.56, 248.82 232.82, 298.59 279.38 M0 0 C49.76 46.56, 248.82 232.82, 298.59 279.38" stroke="#1e1e1e" stroke-width="2" fill="none"></path></g><g transform="translate(90.58815933063624 150.41904914304632) rotate(0 149.29334104595614 139.6909654719925)"><path d="M275.59 269.57 C280.48 271.66, 285.36 273.74, 298.59 279.38 M275.59 269.57 C282.09 272.35, 288.59 275.12, 298.59 279.38" stroke="#1e1e1e" stroke-width="2" fill="none"></path></g><g transform="translate(90.58815933063624 150.41904914304632) rotate(0 149.29334104595614 139.6909654719925)"><path d="M287.27 257.09 C289.68 261.82, 292.08 266.56, 298.59 279.38 M287.27 257.09 C290.47 263.39, 293.67 269.69, 298.59 279.38" stroke="#1e1e1e" stroke-width="2" fill="none"></path></g></g><mask></mask><g stroke-linecap="round"><g transform="translate(131.81275566322734 110.24861964451156) rotate(0 129.15599236684182 69.86883201144565)"><path d="M0 0 C43.05 23.29, 215.26 116.45, 258.31 139.74 M0 0 C43.05 23.29, 215.26 116.45, 258.31 139.74" stroke="#1e1e1e" stroke-width="2" fill="none"></path></g><g transform="translate(131.81275566322734 110.24861964451156) rotate(0 129.15599236684182 69.86883201144565)"><path d="M233.58 136.08 C239.93 137.02, 246.27 137.96, 258.31 139.74 M233.58 136.08 C238.83 136.86, 244.09 137.63, 258.31 139.74" stroke="#1e1e1e" stroke-width="2" fill="none"></path></g><g transform="translate(131.81275566322734 110.24861964451156) rotate(0 129.15599236684182 69.86883201144565)"><path d="M241.72 121.04 C245.97 125.84, 250.23 130.63, 258.31 139.74 M241.72 121.04 C245.24 125.01, 248.77 128.98, 258.31 139.74" stroke="#1e1e1e" stroke-width="2" fill="none"></path></g></g><mask></mask></svg>