<svg version="1.1" xmlns="http://www.w3.org/2000/svg" viewBox="0 0 600 460.00000000000045" width="600" height="460.00000000000045">
  <!-- svg-source:excalidraw -->
  
  <defs>
    <style class="style-fonts">
      
    </style>
    
  </defs>
  <g stroke-linecap="round" transform="translate(10 270.00000000000045) rotate(0 70 90)"><path d="M32 0 C55.93 0.07, 86.11 -4.43, 108 0 C129.36 -2.02, 141.08 9.59, 140 32 C139.25 69.58, 136.87 103.99, 140 148 C142.96 167.71, 132.03 178.07, 108 180 C85.18 178.79, 60.44 176.41, 32 180 C13.09 181.69, 0.9 169.73, 0 148 C-0.74 112.23, 0.82 67.8, 0 32 C-1.65 9.86, 12.7 -1.99, 32 0" stroke="none" stroke-width="0" fill="#fff4e6"></path><path d="M32 0 C57.17 -1.37, 78.1 1.17, 108 0 M32 0 C51.91 0.13, 70.17 0.44, 108 0 M108 0 C128.12 -0.69, 138.79 12.51, 140 32 M108 0 C131.46 1, 138.33 12.29, 140 32 M140 32 C141.45 68.57, 142.85 103.38, 140 148 M140 32 C140.29 70.05, 140.17 108.68, 140 148 M140 148 C140.87 168.28, 129 180.7, 108 180 M140 148 C137.81 170.71, 131.32 182.15, 108 180 M108 180 C84 178.59, 57.82 180.26, 32 180 M108 180 C92.04 180.13, 77.55 178.81, 32 180 M32 180 C8.98 181.02, 0.11 168.6, 0 148 M32 180 C10.68 178.93, 1.36 170.13, 0 148 M0 148 C-0.35 108.37, 0.69 67.01, 0 32 M0 148 C1.19 102.92, -0.07 57.52, 0 32 M0 32 C1.73 10.67, 9.45 -1.88, 32 0 M0 32 C0.61 12.94, 10.99 -1.03, 32 0" stroke="#1e1e1e" stroke-width="2" fill="none"></path></g><g stroke-linecap="round" transform="translate(-29.319088207227196 349.3190882072272) rotate(270 69.3190882072272 10)"><path d="M5 0 C33.88 3.66, 57.23 4.28, 133.64 0 C136.9 1.32, 140.45 3.47, 138.64 5 C138.35 8.61, 136.87 12.43, 138.64 15 C136.18 18.7, 136.71 18.75, 133.64 20 C87.68 15.51, 38.95 17.72, 5 20 C2.8 16.88, -2.18 20.6, 0 15 C1.63 11.65, 0.18 8.54, 0 5 C3.45 0.98, 4.04 -0.53, 5 0" stroke="none" stroke-width="0" fill="#b2f2bb"></path><path d="M5 0 C55.97 1.11, 107.97 1.31, 133.64 0 M5 0 C34.85 -0.7, 67.05 1.18, 133.64 0 M133.64 0 C135.73 1.06, 139.06 3.08, 138.64 5 M133.64 0 C135.37 2.05, 137.59 0.69, 138.64 5 M138.64 5 C138.47 7.29, 138.1 10.06, 138.64 15 M138.64 5 C138.52 6.58, 139.03 8.79, 138.64 15 M138.64 15 C139.77 16.39, 136.96 21.09, 133.64 20 M138.64 15 C140.37 18.03, 137.55 22.1, 133.64 20 M133.64 20 C105.44 19.91, 80.02 22.52, 5 20 M133.64 20 C85.37 19.61, 34.87 19.81, 5 20 M5 20 C0.43 18.1, -0.41 17.77, 0 15 M5 20 C2.33 19.16, -1.91 17.77, 0 15 M0 15 C0.35 13.39, 0.68 10.1, 0 5 M0 15 C-0.53 12.37, 0.18 8.84, 0 5 M0 5 C0.37 3.1, -0.25 -0.55, 5 0 M0 5 C1.19 3.85, 2.14 -0.03, 5 0" stroke="#1e1e1e" stroke-width="2" fill="none"></path></g><g stroke-linecap="round" transform="translate(51.361823585543334 348.63817641445667) rotate(270 68.63817641445576 9.999999999999545)"><path d="M5 0 C30.24 1.3, 61.63 0.13, 132.28 0 C137.42 1.8, 136.63 0.77, 137.28 5 C135.53 8.93, 136.02 9.48, 137.28 15 C137.01 17.09, 138.1 22.77, 132.28 20 C102.12 17.16, 72.45 14.91, 5 20 C-0.51 22.27, -0.07 19.91, 0 15 C0.09 11.8, 1.56 9.25, 0 5 C2.37 1.14, 2.45 -0.86, 5 0" stroke="none" stroke-width="0" fill="#69db7c"></path><path d="M5 0 C50.05 0.81, 91.77 -1.05, 132.28 0 M5 0 C41.65 2.13, 76.41 1.7, 132.28 0 M132.28 0 C136.03 1.42, 135.88 3.45, 137.28 5 M132.28 0 C134.56 -0.98, 137.02 3.95, 137.28 5 M137.28 5 C136.61 8.04, 136.29 11.95, 137.28 15 M137.28 5 C137.71 7.89, 137.55 10.9, 137.28 15 M137.28 15 C137.27 19.42, 137.12 19.74, 132.28 20 M137.28 15 C137.86 20.43, 133.56 20.45, 132.28 20 M132.28 20 C88.17 21.38, 44.48 18.75, 5 20 M132.28 20 C91.22 18.72, 50.16 18.23, 5 20 M5 20 C1.26 19.43, 0.58 17.61, 0 15 M5 20 C-0.24 19.44, -2.12 19.48, 0 15 M0 15 C0.69 10.9, 0.05 8.74, 0 5 M0 15 C0.32 12.93, 0.19 11.18, 0 5 M0 5 C-1.92 1.12, 2.7 1.9, 5 0 M0 5 C0.48 1.63, -0.28 1.84, 5 0" stroke="#1e1e1e" stroke-width="2" fill="none"></path></g><g stroke-linecap="round" transform="translate(10.000000000000455 349.99999999999955) rotate(270 70.00000000000045 10.000000000000455)"><path d="M5 0 C50.68 -0.3, 98.31 0.18, 135 0 C137.69 -0.89, 136.93 1.19, 140 5 C138.6 8.62, 139.7 11.25, 140 15 C142.5 21.11, 136.16 21.55, 135 20 C108.27 16.31, 77.1 21.7, 5 20 C1.6 21.57, -1.07 21.75, 0 15 C1.7 11.86, 1.16 9.14, 0 5 C0.79 0.81, 0.56 0.62, 5 0" stroke="none" stroke-width="0" fill="#e9ecef"></path><path d="M5 0 C53.83 -1.2, 104.77 -2.95, 135 0 M5 0 C31.37 -0.71, 59.2 -0.53, 135 0 M135 0 C136.94 1.78, 139.09 0.82, 140 5 M135 0 C138.07 2.29, 141.74 1.05, 140 5 M140 5 C138.98 6.84, 140.13 9.67, 140 15 M140 5 C140.37 6.58, 140.09 9.4, 140 15 M140 15 C141.51 18.07, 138.84 21.83, 135 20 M140 15 C137.95 18.78, 139.52 18.75, 135 20 M135 20 C102.52 20.43, 67.14 23.12, 5 20 M135 20 C103.82 18.47, 73.67 19.13, 5 20 M5 20 C2.25 19.27, -1.66 17.84, 0 15 M5 20 C-0.45 21.15, 0.85 19.26, 0 15 M0 15 C0.02 12.01, -0.99 7.1, 0 5 M0 15 C0.05 11.43, -0.52 7.01, 0 5 M0 5 C1.04 3.56, 2.08 -0.03, 5 0 M0 5 C-1.95 3.51, -0.11 0.77, 5 0" stroke="#1e1e1e" stroke-width="2" fill="none"></path></g><g stroke-linecap="round" transform="translate(450 270.00000000000045) rotate(0 70 90)"><path d="M32 0 C59.31 3.91, 83.3 -0.72, 108 0 C130.55 2.89, 141.65 9.51, 140 32 C140.8 73.98, 142.33 110.14, 140 148 C138.7 168.65, 126.59 177.52, 108 180 C83.3 176.21, 57.97 175.5, 32 180 C8 179.74, -0.96 167.62, 0 148 C-3.08 112.23, 0.46 79.04, 0 32 C0.91 10.47, 12.66 2.92, 32 0" stroke="none" stroke-width="0" fill="#f8f1ee"></path><path d="M32 0 C51.81 -1.38, 74.63 2.35, 108 0 M32 0 C57.38 -0.3, 81.37 0.52, 108 0 M108 0 C128.52 1.64, 138.27 9.86, 140 32 M108 0 C129.28 -2.12, 140.37 11.16, 140 32 M140 32 C137.3 62.69, 139.51 91.12, 140 148 M140 32 C140.94 62.9, 141.44 95.02, 140 148 M140 148 C140.17 168.71, 128.57 180.94, 108 180 M140 148 C142.23 170.76, 129.56 180.53, 108 180 M108 180 C89.4 180.5, 68.79 178.57, 32 180 M108 180 C86.29 179.67, 66.66 179.75, 32 180 M32 180 C10.19 180.57, 1.37 170.93, 0 148 M32 180 C10.94 180.43, 0.38 171.51, 0 148 M0 148 C0.22 124.7, 0.21 97.76, 0 32 M0 148 C0.06 102.43, -0.99 55.18, 0 32 M0 32 C0 12.59, 12.11 -0.82, 32 0 M0 32 C0.56 11.88, 10.7 2.21, 32 0" stroke="#1e1e1e" stroke-width="2" fill="none"></path></g><g stroke-linecap="round" transform="translate(451.36182358554515 348.63817641445485) rotate(270 68.63817641445485 10)"><path d="M5 0 C34.39 -0.44, 56.9 -4.24, 132.28 0 C138.49 -2.78, 138.48 3.54, 137.28 5 C138.06 8.04, 138.3 8.94, 137.28 15 C136.38 15.27, 135.13 21.57, 132.28 20 C106.62 18.17, 78.99 20.93, 5 20 C4.44 17.82, 1.55 15.25, 0 15 C-1.52 10.82, 1.18 8.79, 0 5 C1.57 0.6, 5.08 -0.73, 5 0" stroke="none" stroke-width="0" fill="#ffc9c9"></path><path d="M5 0 C41.7 1.95, 74.23 2.59, 132.28 0 M5 0 C43.15 0.52, 80.55 -0.62, 132.28 0 M132.28 0 C135.64 -0.34, 135.56 -0.18, 137.28 5 M132.28 0 C137.07 2.2, 135.84 2.88, 137.28 5 M137.28 5 C138.24 7.75, 136.92 11.3, 137.28 15 M137.28 5 C137.05 8.67, 136.99 12.51, 137.28 15 M137.28 15 C136.15 18.72, 135.35 18.13, 132.28 20 M137.28 15 C139.34 16.94, 136.92 17.77, 132.28 20 M132.28 20 C93.9 21.47, 57.88 19.18, 5 20 M132.28 20 C91.25 19.62, 51.9 20.14, 5 20 M5 20 C0.89 20.4, 1.92 17.04, 0 15 M5 20 C0.96 18.96, -1.42 16.15, 0 15 M0 15 C-0.34 11.37, -0.22 8.49, 0 5 M0 15 C0.2 11.86, -0.4 8.04, 0 5 M0 5 C0.96 -0.16, -0.26 1.85, 5 0 M0 5 C1.04 1.76, 2.1 1.65, 5 0" stroke="#1e1e1e" stroke-width="2" fill="none"></path></g><g stroke-linecap="round" transform="translate(411.36182358554333 348.63817641445667) rotate(270 68.63817641445576 9.999999999999545)"><path d="M5 0 C48.7 -0.84, 87.84 3.81, 132.28 0 C132.49 2.49, 137.2 2.99, 137.28 5 C136.92 6.97, 137.13 12.79, 137.28 15 C133.84 21.91, 133.15 20.36, 132.28 20 C97.8 19.41, 59.32 18.5, 5 20 C1.99 19.12, 1.13 15.21, 0 15 C0.67 12.07, 1.6 9.84, 0 5 C0.52 0.68, 5.12 -0.68, 5 0" stroke="none" stroke-width="0" fill="#a5d8ff"></path><path d="M5 0 C51.2 -0.31, 97.68 0.48, 132.28 0 M5 0 C49.89 0.61, 93.89 -0.14, 132.28 0 M132.28 0 C136.88 1.91, 136.03 2.73, 137.28 5 M132.28 0 C136.09 1.63, 135.68 3.72, 137.28 5 M137.28 5 C138.23 8.3, 136.97 9.49, 137.28 15 M137.28 5 C136.92 7.46, 137.14 9.25, 137.28 15 M137.28 15 C139.07 17.12, 136.75 18.06, 132.28 20 M137.28 15 C137.26 19.58, 137.34 19.7, 132.28 20 M132.28 20 C91.26 19.89, 48.38 18.12, 5 20 M132.28 20 C89.78 21.25, 49.01 20.4, 5 20 M5 20 C1.05 19.1, -1.23 16.44, 0 15 M5 20 C1.2 19.35, 0.67 17.5, 0 15 M0 15 C0.52 13.2, 0.43 11.13, 0 5 M0 15 C0.31 10.82, -0.41 8.01, 0 5 M0 5 C0.91 1.74, 2.04 1.43, 5 0 M0 5 C-2.21 1.04, 2.86 2.18, 5 0" stroke="#1e1e1e" stroke-width="2" fill="none"></path></g><g stroke-linecap="round" transform="translate(490.00000000000045 349.99999999999955) rotate(270 69.99999999999955 10)"><path d="M5 0 C48.12 -2.06, 89.47 -1.65, 135 0 C139.91 -3.44, 143.57 -0.79, 140 5 C141.23 9.49, 138.9 11.98, 140 15 C136.92 18.66, 137.45 21.13, 135 20 C107.21 23.05, 78.49 24.89, 5 20 C0.93 20.52, -0.99 21.79, 0 15 C0.27 11.76, -0.67 9.69, 0 5 C-1.46 -1.65, 2.64 1.63, 5 0" stroke="none" stroke-width="0" fill="#f3f0ff"></path><path d="M5 0 C42.34 2.39, 85.29 -0.13, 135 0 M5 0 C50.19 -0.03, 96.31 -1.35, 135 0 M135 0 C138.11 1.99, 141.51 1.13, 140 5 M135 0 C136.96 -1.48, 138.35 -0.53, 140 5 M140 5 C139.08 8.34, 139.41 10.45, 140 15 M140 5 C140.38 6.96, 140.13 9.52, 140 15 M140 15 C138.22 18.72, 139.36 18.92, 135 20 M140 15 C139.14 19.04, 140.47 21.9, 135 20 M135 20 C99.72 20.63, 66.13 20.01, 5 20 M135 20 C108.62 19.27, 80.83 19.39, 5 20 M5 20 C-0.17 21, 0.74 19.14, 0 15 M5 20 C2.74 21.67, -1.69 18.54, 0 15 M0 15 C1.02 11.97, 0.13 8.23, 0 5 M0 15 C0.36 11.76, 0.2 7.56, 0 5 M0 5 C-1.7 3.27, 0.12 0.67, 5 0 M0 5 C1.19 -0.33, 3.26 -0.05, 5 0" stroke="#1e1e1e" stroke-width="2" fill="none"></path></g><g stroke-linecap="round" transform="translate(230 270.00000000000045) rotate(0 70 90)"><path d="M32 0 C52.91 -2.25, 72.27 2.04, 108 0 C130.53 -1.02, 141.53 11.17, 140 32 C136.5 55.45, 140.91 82.17, 140 148 C137.51 170.95, 126.49 182.6, 108 180 C91.75 178.18, 77.79 182.32, 32 180 C7.64 178.32, 0.2 171.2, 0 148 C1.47 106.48, 0.91 56.68, 0 32 C3.19 12.1, 7.82 -1.86, 32 0" stroke="none" stroke-width="0" fill="#fff9db"></path><path d="M32 0 C61.99 2.27, 91.35 1.1, 108 0 M32 0 C57.94 -1.02, 85.58 -1.54, 108 0 M108 0 C129.66 0.43, 139.23 9.1, 140 32 M108 0 C129.55 -2.06, 140.43 11.14, 140 32 M140 32 C140.18 59.08, 138.24 86.23, 140 148 M140 32 C139.72 64.68, 141.07 97.05, 140 148 M140 148 C140.2 169.79, 128.33 180.95, 108 180 M140 148 C138.08 169.79, 130.64 178.59, 108 180 M108 180 C88.66 178.84, 67.43 181.4, 32 180 M108 180 C89.09 181.01, 68.93 180.4, 32 180 M32 180 C11 181.89, -1.78 168.37, 0 148 M32 180 C9.27 179.61, 1.35 168.93, 0 148 M0 148 C0.63 121.81, 0.25 92.43, 0 32 M0 148 C0.72 115.95, 0.24 85.25, 0 32 M0 32 C0.03 12.59, 11.32 -0.26, 32 0 M0 32 C-1.61 11.95, 12.55 0.45, 32 0" stroke="#1e1e1e" stroke-width="2" fill="none"></path></g><g stroke-linecap="round" transform="translate(190.6809117927719 350.00000000000136) rotate(270 69.3190882072272 9.999999999999545)"><path d="M5 0 C50.21 -3.53, 98.4 -3.26, 133.64 0 C138.17 1.87, 135.52 4.16, 138.64 5 C139.6 7.66, 138.26 9.43, 138.64 15 C138.16 19.91, 133.53 23.57, 133.64 20 C102.57 22.33, 76.78 17.65, 5 20 C3.22 16.92, 0.33 17.45, 0 15 C1.29 11.65, 0.94 7.84, 0 5 C3.42 0.93, 2.19 -0.99, 5 0" stroke="none" stroke-width="0" fill="#fcc2d7"></path><path d="M5 0 C35.17 1.1, 68.59 0.09, 133.64 0 M5 0 C44.57 -1.29, 82.27 -0.85, 133.64 0 M133.64 0 C135.26 -1.85, 139.91 3.58, 138.64 5 M133.64 0 C135.54 1.22, 139.12 3.3, 138.64 5 M138.64 5 C138.3 7.19, 139.72 10.36, 138.64 15 M138.64 5 C138.22 7.25, 138.3 10.56, 138.64 15 M138.64 15 C138.37 16.46, 138.77 18.79, 133.64 20 M138.64 15 C139.94 16.1, 136.96 21.25, 133.64 20 M133.64 20 C87.18 18.54, 37.45 21.35, 5 20 M133.64 20 C102.94 21.22, 70 20.6, 5 20 M5 20 C3.58 18.7, -0.61 17.43, 0 15 M5 20 C0.25 17.82, -0.47 17.68, 0 15 M0 15 C-0.21 10.79, 0.54 8.79, 0 5 M0 15 C-0.41 11.64, 0.19 7.74, 0 5 M0 5 C-1.92 3.52, 2.57 0.08, 5 0 M0 5 C0.43 3.31, -0.54 -0.63, 5 0" stroke="#1e1e1e" stroke-width="2" fill="none"></path></g><g stroke-linecap="round" transform="translate(230.6809117927719 349.319088207229) rotate(270 69.3190882072281 10.000000000000455)"><path d="M5 0 C54.3 0.95, 99.32 -1.74, 133.64 0 C133.9 -0.48, 140.21 -1.77, 138.64 5 C138.38 8.37, 139.76 14.37, 138.64 15 C136.46 19.88, 133.89 20.33, 133.64 20 C96.01 20.26, 62.67 19.56, 5 20 C0.6 23.42, -0.73 18.86, 0 15 C1.01 12.01, 0.22 9.12, 0 5 C-1.11 2.29, 0.21 -3.32, 5 0" stroke="none" stroke-width="0" fill="#eaddd7"></path><path d="M5 0 C55.45 -1.73, 104.74 1.25, 133.64 0 M5 0 C56.11 0.03, 106.1 0.21, 133.64 0 M133.64 0 C136.06 -0.85, 138.41 3.65, 138.64 5 M133.64 0 C138.71 -0.62, 137.26 0.19, 138.64 5 M138.64 5 C138.74 7.15, 137.61 10.46, 138.64 15 M138.64 5 C138.69 7.67, 139.07 9.72, 138.64 15 M138.64 15 C139.14 20.16, 135.19 20.39, 133.64 20 M138.64 15 C139.82 17.09, 136.11 20.71, 133.64 20 M133.64 20 C83.51 21.42, 31.29 18.89, 5 20 M133.64 20 C100.64 18.5, 68.33 18.42, 5 20 M5 20 C0.01 19.51, -1.84 19.33, 0 15 M5 20 C2.51 20.93, 1.07 20.01, 0 15 M0 15 C-0.92 11.77, 0.92 10.93, 0 5 M0 15 C-0.5 11.82, 0.24 9.4, 0 5 M0 5 C0.41 1.64, -0.03 1.6, 5 0 M0 5 C-1.78 2.43, 2.86 -1.99, 5 0" stroke="#1e1e1e" stroke-width="2" fill="none"></path></g><g stroke-linecap="round" transform="translate(270.6809117927737 349.3190882072263) rotate(270 69.3190882072272 10.000000000000455)"><path d="M5 0 C46.95 0.09, 96.61 -2.87, 133.64 0 C140.55 -2.46, 139 1.4, 138.64 5 C137.67 8.43, 137.22 10.47, 138.64 15 C137.76 19.47, 133.85 17.82, 133.64 20 C85.88 24.43, 39.52 21.53, 5 20 C0.68 23.45, -0.68 20.71, 0 15 C-0.59 12.46, -0.77 7.64, 0 5 C0.98 3.3, -0.95 3.15, 5 0" stroke="none" stroke-width="0" fill="#ebfbee"></path><path d="M5 0 C34.47 -2.06, 61.18 -0.4, 133.64 0 M5 0 C52.25 -1.57, 100.31 -0.15, 133.64 0 M133.64 0 C138.48 -0.54, 137.44 0.38, 138.64 5 M133.64 0 C135.32 -2.2, 137.35 2.11, 138.64 5 M138.64 5 C137.94 8.44, 137.57 10.73, 138.64 15 M138.64 5 C138.84 9, 138.27 12.18, 138.64 15 M138.64 15 C139.67 17.25, 136.22 20.62, 133.64 20 M138.64 15 C140.77 20.24, 136.08 20.46, 133.64 20 M133.64 20 C81.81 18.37, 29.89 19.2, 5 20 M133.64 20 C97.86 19.29, 62.82 20.03, 5 20 M5 20 C2.4 20.81, 0.93 19.79, 0 15 M5 20 C-0.03 20.21, 1.1 16.23, 0 15 M0 15 C-0.05 13.15, 0.62 9.96, 0 5 M0 15 C0.05 12.27, -0.48 9.95, 0 5 M0 5 C-1.54 2.33, 2.71 -1.73, 5 0 M0 5 C1.59 1.62, 2.51 1.16, 5 0" stroke="#1e1e1e" stroke-width="2" fill="none"></path></g><g stroke-linecap="round" transform="translate(10.03227688685729 30.00000180909001) rotate(270.0154157439596 69.9865497594052 49.99999819091022)"><path d="M0.5 1.13 L140.65 0.31 L139.52 100.07 L-0.27 98.38" stroke="none" stroke-width="0" fill="#fff4e6"></path><path d="M0 0 C35.41 1.05, 66.54 -0.07, 139.97 0 M0 0 C29.42 -1.02, 59.71 -0.12, 139.97 0 M139.97 0 C137.92 28.61, 140.03 61.87, 139.97 100 M139.97 0 C139.45 32.92, 139.04 63.82, 139.97 100 M139.97 100 C111.63 100.86, 83.62 99.74, 0 100 M139.97 100 C97.63 100.45, 56.71 100.65, 0 100 M0 100 C0.54 65.14, 1.24 29.89, 0 0 M0 100 C0.08 77.33, -0.45 54.53, 0 0" stroke="#1e1e1e" stroke-width="2" fill="none"></path></g><g stroke-linecap="round" transform="translate(50.008065512023904 110.013448068868) rotate(180.01541574395964 29.997307998009887 9.989240676214877)"><path d="M0.34 0.15 L59.77 0.03 L59.86 19.17 L-0.67 20.3" stroke="none" stroke-width="0" fill="#b2f2bb"></path><path d="M0 0 C14.24 -0.46, 28.51 0.34, 59.99 0 M0 0 C19.84 0.35, 40.37 -0.16, 59.99 0 M59.99 0 C60.26 5.52, 60.13 8.43, 59.99 19.98 M59.99 0 C59.9 7.66, 59.54 15.83, 59.99 19.98 M59.99 19.98 C46.43 20.57, 31.87 19.51, 0 19.98 M59.99 19.98 C39.68 19.91, 18.63 19.99, 0 19.98 M0 19.98 C0.66 15.65, -0.76 11.33, 0 0 M0 19.98 C-0.44 15.8, 0.17 11.88, 0 0" stroke="#1e1e1e" stroke-width="2" fill="none"></path></g><g stroke-linecap="round" transform="translate(50.029589950863055 30.013448068871185) rotate(180.01541574395964 29.986545778590084 9.989242124030852)"><path d="M-0.23 0.03 L59.84 -0.81 L59.31 20.3 L-0.2 20.82" stroke="none" stroke-width="0" fill="#69db7c"></path><path d="M0 0 C17.97 0.51, 37.98 -0.66, 59.97 0 M0 0 C14.97 -0.43, 29.58 -0.48, 59.97 0 M59.97 0 C60.21 3.93, 60.92 9.45, 59.97 19.98 M59.97 0 C59.48 7.86, 59.62 15.43, 59.97 19.98 M59.97 19.98 C36.67 19.34, 13.81 19.85, 0 19.98 M59.97 19.98 C43.46 20.05, 25.99 20.15, 0 19.98 M0 19.98 C-0.79 13.54, -0.97 7.7, 0 0 M0 19.98 C0.22 14.1, 0.27 7.74, 0 0" stroke="#1e1e1e" stroke-width="2" fill="none"></path></g><g stroke-linecap="round" transform="translate(50.018827731443935 70.01344806886891) rotate(180.01541574395964 29.99192688829976 9.98924140012332)"><path d="M-0.13 -0.81 L59.32 0.33 L59.79 20.82 L0.37 20.77" stroke="none" stroke-width="0" fill="#e9ecef"></path><path d="M0 0 C15.82 -0.9, 30.41 -0.81, 59.98 0 M0 0 C19.96 -0.17, 40.3 0.36, 59.98 0 M59.98 0 C60.92 8.09, 60.84 15.59, 59.98 19.98 M59.98 0 C59.56 5.41, 60.33 10.91, 59.98 19.98 M59.98 19.98 C40.5 19.53, 19.87 20.72, 0 19.98 M59.98 19.98 C41.54 20.19, 24.04 20.37, 0 19.98 M0 19.98 C-0.83 14.08, 0.15 8.1, 0 0 M0 19.98 C0.15 14.01, -0.14 7.91, 0 0" stroke="#1e1e1e" stroke-width="2" fill="none"></path></g><g stroke-linecap="round" transform="translate(450 30.000000000000455) rotate(270 70 50)"><path d="M-1.34 0.65 L139.61 1.68 L140.73 101.57 L-1.83 99.69" stroke="none" stroke-width="0" fill="#f8f1ee"></path><path d="M0 0 C46.33 -0.29, 95.46 1.1, 140 0 M0 0 C32.65 1.34, 67.61 1.21, 140 0 M140 0 C142.6 22.49, 140.25 43.99, 140 100 M140 0 C140.23 34.21, 139.67 67.41, 140 100 M140 100 C107.93 101.62, 76.68 100.64, 0 100 M140 100 C95.97 101.17, 51.74 99.75, 0 100 M0 100 C1.07 73.24, 0.95 50.84, 0 0 M0 100 C-0.57 64.4, -0.47 27.92, 0 0" stroke="#1e1e1e" stroke-width="2" fill="none"></path></g><g stroke-linecap="round" transform="translate(490 70.00000000000227) rotate(180 30.000000000000227 9.999999999998863)"><path d="M-0.2 0.84 L60.37 0.79 L59.09 19.84 L-0.45 19.28" stroke="none" stroke-width="0" fill="#ffc9c9"></path><path d="M0 0 C13.65 0.21, 25.91 -0.51, 60 0 M0 0 C14.17 0, 27.03 0.36, 60 0 M60 0 C59.75 5.41, 60.45 12.07, 60 20 M60 0 C60.25 6.34, 59.72 12.91, 60 20 M60 20 C43.35 20.77, 26.84 19.32, 0 20 M60 20 C39.82 19.85, 19.65 19.76, 0 20 M0 20 C0.02 15.13, 0.55 10.11, 0 0 M0 20 C-0.04 13.29, -0.31 7.55, 0 0" stroke="#1e1e1e" stroke-width="2" fill="none"></path></g><g stroke-linecap="round" transform="translate(490 109.99999999999955) rotate(180 29.999999999999773 10.000000000000455)"><path d="M0.73 1.57 L58.17 -0.31 L59.09 18.56 L0.75 21.88" stroke="none" stroke-width="0" fill="#a5d8ff"></path><path d="M0 0 C12.57 -1.43, 26.18 -1.36, 60 0 M0 0 C19.33 0.79, 40.26 0.72, 60 0 M60 0 C60.67 4.24, 60.27 12.87, 60 20 M60 0 C59.33 7.48, 59.84 13.81, 60 20 M60 20 C36.49 18.36, 13.09 20.21, 0 20 M60 20 C37.32 18.66, 15.24 19.65, 0 20 M0 20 C1.12 16.61, 0.3 11.41, 0 0 M0 20 C-0.64 14.26, -0.17 8.71, 0 0" stroke="#1e1e1e" stroke-width="2" fill="none"></path></g><g stroke-linecap="round" transform="translate(489.9999999999982 29.999999999998636) rotate(180 30.00000000000091 10.000000000000682)"><path d="M-1.83 -0.31 L59.09 -1.44 L60.75 21.88 L-0.44 18.37" stroke="none" stroke-width="0" fill="#f3f0ff"></path><path d="M0 0 C16.55 -0.93, 36.65 2.35, 60 0 M0 0 C19.43 0.29, 38.26 -0.88, 60 0 M60 0 C60.41 5.87, 61.08 8.85, 60 20 M60 0 C59.63 5.81, 60.82 12.03, 60 20 M60 20 C39.81 19.34, 19.64 18.88, 0 20 M60 20 C45.91 19.54, 31.73 19.48, 0 20 M0 20 C0.2 13.05, -0.04 6.74, 0 0 M0 20 C-0.06 16.46, 0.5 12.03, 0 0" stroke="#1e1e1e" stroke-width="2" fill="none"></path></g><g stroke-linecap="round" transform="translate(230.26008340111048 30.309777702481824) rotate(269.72511780873134 69.5698289144782 49.4967150648165)"><path d="M-0.91 -1.44 L139.89 1.88 L138.7 97.36 L-1.86 98.77" stroke="none" stroke-width="0" fill="#fff9db"></path><path d="M0 0 C32.47 2.86, 64 -0.46, 139.14 0 M0 0 C54.26 -1.5, 108.02 -0.8, 139.14 0 M139.14 0 C140.32 23.86, 139.32 44.94, 139.14 98.99 M139.14 0 C139.88 34.32, 139.4 68.79, 139.14 98.99 M139.14 98.99 C112.22 98.4, 81.08 97.91, 0 98.99 M139.14 98.99 C108.98 99.13, 81.01 99.67, 0 98.99 M0 98.99 C-0.09 65.65, -1.78 31.52, 0 0 M0 98.99 C0.56 66.85, -0.72 32.98, 0 0" stroke="#1e1e1e" stroke-width="2" fill="none"></path></g><g stroke-linecap="round" transform="translate(271.1359250145981 109.89416975798622) rotate(179.72511780873126 29.273379689378885 9.965982463117143)"><path d="M0.38 0.94 L58.33 -0.82 L57.62 19.82 L-0.79 20.32" stroke="none" stroke-width="0" fill="#fcc2d7"></path><path d="M0 0 C13.79 -0.99, 28.08 -0.1, 58.55 0 M0 0 C22.01 0.28, 44.63 0.18, 58.55 0 M58.55 0 C58.61 7.01, 59.06 15.27, 58.55 19.93 M58.55 0 C58.88 5.64, 58.16 11.3, 58.55 19.93 M58.55 19.93 C40.48 19.34, 22.96 19.41, 0 19.93 M58.55 19.93 C40.63 20.22, 22.63 20.02, 0 19.93 M0 19.93 C-0.81 13.74, 0.32 8.68, 0 0 M0 19.93 C-0.49 12.2, -0.26 4.26, 0 0" stroke="#1e1e1e" stroke-width="2" fill="none"></path></g><g stroke-linecap="round" transform="translate(270.266081892325 70.03186771654737) rotate(179.72511780873126 29.70830265266295 9.965982463118053)"><path d="M-0.22 -0.82 L58.49 -0.11 L58.62 20.32 L0.31 20.41" stroke="none" stroke-width="0" fill="#eaddd7"></path><path d="M0 0 C24.44 0.39, 47.88 -0.02, 59.42 0 M0 0 C15.52 -0.03, 32.14 0.14, 59.42 0 M59.42 0 C59.88 6.41, 59.21 14.22, 59.42 19.93 M59.42 0 C58.98 6.14, 59.45 12.28, 59.42 19.93 M59.42 19.93 C42.28 19.34, 27.04 18.81, 0 19.93 M59.42 19.93 C41.62 20.18, 23.37 20.12, 0 19.93 M0 19.93 C0.41 14.02, 0.92 8.87, 0 0 M0 19.93 C-0.13 12.02, 0.28 5.3, 0 0" stroke="#1e1e1e" stroke-width="2" fill="none"></path></g><g stroke-linecap="round" transform="translate(269.9785315376271 30.065805310925498) rotate(179.72511780873126 29.851380777961595 9.777876773109483)"><path d="M-0.93 -0.11 L58.91 0.39 L60.01 20.03 L0.2 19.87" stroke="none" stroke-width="0" fill="#ebfbee"></path><path d="M0 0 C14.54 -0.28, 27.06 -1.01, 59.7 0 M0 0 C20.56 0.2, 40.4 -0.05, 59.7 0 M59.7 0 C59.55 5.37, 59.74 9.31, 59.7 19.56 M59.7 0 C59.59 6.48, 59.48 11.94, 59.7 19.56 M59.7 19.56 C44.96 18.46, 30.08 19.67, 0 19.56 M59.7 19.56 C38.32 19.62, 17.09 19.2, 0 19.56 M0 19.56 C0.79 15.35, 0.74 9.54, 0 0 M0 19.56 C0.23 14.46, -0.06 8.04, 0 0" stroke="#1e1e1e" stroke-width="2" fill="none"></path></g><g stroke-linecap="round"><g transform="translate(70.26805348409334 151.10973067240775) rotate(0 0.4607535522889066 59.39497008285298)"><path d="M0.78 -0.04 C1 19.4, 1.58 98.06, 1.51 117.67 M-0.27 -1.11 C-0.17 18.96, 0.94 98.71, 0.87 118.62" stroke="#1e1e1e" stroke-width="4" fill="none"></path></g><g transform="translate(70.26805348409334 151.10973067240775) rotate(0 0.4607535522889066 59.39497008285298)"><path d="M-7.83 95.18 C-4.97 103.48, -4.03 108.93, 0.87 118.62 M-7.83 95.18 C-6.16 98.92, -4.36 105.21, 0.87 118.62" stroke="#1e1e1e" stroke-width="4" fill="none"></path></g><g transform="translate(70.26805348409334 151.10973067240775) rotate(0 0.4607535522889066 59.39497008285298)"><path d="M9.27 95.07 C6.76 103.51, 2.32 109, 0.87 118.62 M9.27 95.07 C7.44 99, 5.74 105.31, 0.87 118.62" stroke="#1e1e1e" stroke-width="4" fill="none"></path></g></g><mask></mask><g stroke-linecap="round"><g transform="translate(291.2351205645259 150.63750130908556) rotate(0 -0.8447148458631091 59.99767296185678)"><path d="M-1.05 0.27 C-1.05 20.45, -0.81 100.85, -0.77 120.89 M0.6 -0.64 C0.59 19.23, -0.95 99.4, -1.24 119.23" stroke="#1e1e1e" stroke-width="4" fill="none"></path></g><g transform="translate(291.2351205645259 150.63750130908556) rotate(0 -0.8447148458631091 59.99767296185678)"><path d="M-9.39 95.6 C-7.05 102.79, -4.09 108.34, -1.24 119.23 M-9.39 95.6 C-5.71 103.4, -3.17 111.85, -1.24 119.23" stroke="#1e1e1e" stroke-width="4" fill="none"></path></g><g transform="translate(291.2351205645259 150.63750130908556) rotate(0 -0.8447148458631091 59.99767296185678)"><path d="M7.71 95.89 C6.01 102.86, 4.93 108.34, -1.24 119.23 M7.71 95.89 C5.6 103.61, 2.34 111.96, -1.24 119.23" stroke="#1e1e1e" stroke-width="4" fill="none"></path></g></g><mask></mask><g stroke-linecap="round"><g transform="translate(510.5787451218812 150.6057783354072) rotate(0 0.9377963715778606 59.73471765171257)"><path d="M-0.58 -0.61 C-0.38 19.3, 1.67 99.1, 1.95 118.95 M1.32 1.69 C1.3 21.8, 0.66 100.62, 1.04 120.21" stroke="#1e1e1e" stroke-width="4" fill="none"></path></g><g transform="translate(510.5787451218812 150.6057783354072) rotate(0 0.9377963715778606 59.73471765171257)"><path d="M-7.6 96.75 C-5.57 105.42, -2.3 112.55, 1.04 120.21 M-7.6 96.75 C-5.23 102.79, -4.25 107.22, 1.04 120.21" stroke="#1e1e1e" stroke-width="4" fill="none"></path></g><g transform="translate(510.5787451218812 150.6057783354072) rotate(0 0.9377963715778606 59.73471765171257)"><path d="M9.5 96.69 C5.33 105.3, 2.4 112.45, 1.04 120.21 M9.5 96.69 C8.15 102.88, 5.4 107.33, 1.04 120.21" stroke="#1e1e1e" stroke-width="4" fill="none"></path></g></g><mask></mask><g stroke-linecap="round"><g transform="translate(90.29732356608133 270.31339523680526) rotate(0 0 -60)"><path d="M-0.3 1.2 C-0.32 -18.87, 0.61 -100.22, 0.54 -120.31 M1.75 0.78 C1.56 -19.12, -0.13 -98.59, -0.12 -118.94" stroke="#1e1e1e" stroke-width="4" fill="none"></path></g><g transform="translate(90.29732356608133 270.31339523680526) rotate(0 0 -60)"><path d="M8.7 -95.55 C7.55 -102.98, 1.89 -113.36, -0.12 -118.94 M8.7 -95.55 C5.31 -103.7, 2.51 -112.89, -0.12 -118.94" stroke="#1e1e1e" stroke-width="4" fill="none"></path></g><g transform="translate(90.29732356608133 270.31339523680526) rotate(0 0 -60)"><path d="M-8.4 -95.35 C-3.48 -102.81, -3.06 -113.26, -0.12 -118.94 M-8.4 -95.35 C-5.72 -103.41, -2.45 -112.67, -0.12 -118.94" stroke="#1e1e1e" stroke-width="4" fill="none"></path></g></g><mask></mask><g stroke-linecap="round"><g transform="translate(530.3107238199595 270) rotate(0 0 -60)"><path d="M0 0 C1.48 -35.81, 1.29 -73.48, 0 -120 M0 0 C-0.87 -31.44, 0.4 -62.07, 0 -120" stroke="#1e1e1e" stroke-width="4" fill="none"></path></g><g transform="translate(530.3107238199595 270) rotate(0 0 -60)"><path d="M8.56 -96.51 C7.27 -102.84, 4.46 -110.97, 0 -120 M8.56 -96.51 C5.4 -102.94, 4.45 -108.59, 0 -120" stroke="#1e1e1e" stroke-width="4" fill="none"></path></g><g transform="translate(530.3107238199595 270) rotate(0 0 -60)"><path d="M-8.54 -96.51 C-4.59 -102.7, -2.17 -110.83, 0 -120 M-8.54 -96.51 C-7.28 -102.99, -3.79 -108.63, 0 -120" stroke="#1e1e1e" stroke-width="4" fill="none"></path></g></g><mask></mask><g stroke-linecap="round"><g transform="translate(150 350) rotate(0 40 0)"><path d="M0 0 C19.02 -0.24, 33.57 -1.77, 80 0 M0 0 C24.95 -0.64, 47.95 0.84, 80 0" stroke="#1e1e1e" stroke-width="2" fill="none"></path></g><g transform="translate(150 350) rotate(0 40 0)"><path d="M23.33 -8.97 C20.23 -6.49, 12.68 -6.11, 0 0 M23.33 -8.97 C16.62 -7.01, 8.02 -2.78, 0 0" stroke="#1e1e1e" stroke-width="2" fill="none"></path></g><g transform="translate(150 350) rotate(0 40 0)"><path d="M23.64 8.13 C20.55 6.95, 12.94 3.68, 0 0 M23.64 8.13 C16.97 4.86, 8.27 3.86, 0 0" stroke="#1e1e1e" stroke-width="2" fill="none"></path></g><g transform="translate(150 350) rotate(0 40 0)"><path d="M56.59 8.77 C63.56 7.1, 66.01 3.69, 80 0 M56.59 8.77 C64.31 5.38, 70 4.17, 80 0" stroke="#1e1e1e" stroke-width="2" fill="none"></path></g><g transform="translate(150 350) rotate(0 40 0)"><path d="M56.43 -8.33 C63.35 -6.35, 65.83 -6.1, 80 0 M56.43 -8.33 C64.06 -6.49, 69.8 -2.47, 80 0" stroke="#1e1e1e" stroke-width="2" fill="none"></path></g></g><mask></mask><g stroke-linecap="round"><g transform="translate(370 350) rotate(0 40 0)"><path d="M0 0 C29.36 0.3, 54.59 -1.13, 80 0 M0 0 C19.48 1.67, 40.73 1.43, 80 0" stroke="#1e1e1e" stroke-width="2" fill="none"></path></g><g transform="translate(370 350) rotate(0 40 0)"><path d="M23.43 -8.73 C16.72 -6.21, 5.89 -4.59, 0 0 M23.43 -8.73 C17.11 -5.91, 12.47 -3.97, 0 0" stroke="#1e1e1e" stroke-width="2" fill="none"></path></g><g transform="translate(370 350) rotate(0 40 0)"><path d="M23.56 8.37 C16.8 4.92, 5.92 0.58, 0 0 M23.56 8.37 C17.04 6.91, 12.37 4.57, 0 0" stroke="#1e1e1e" stroke-width="2" fill="none"></path></g><g transform="translate(370 350) rotate(0 40 0)"><path d="M56.78 9.26 C66.34 5.88, 71.77 1.22, 80 0 M56.78 9.26 C61.96 8.05, 69 5.49, 80 0" stroke="#1e1e1e" stroke-width="2" fill="none"></path></g><g transform="translate(370 350) rotate(0 40 0)"><path d="M56.26 -7.83 C66 -5.25, 71.61 -3.94, 80 0 M56.26 -7.83 C61.74 -4.76, 68.9 -3.05, 80 0" stroke="#1e1e1e" stroke-width="2" fill="none"></path></g></g><mask></mask><g stroke-linecap="round"><g transform="translate(311.29902339758564 270) rotate(0 0 -60)"><path d="M0 0 C-1.31 -41.68, 1.29 -84.64, 0 -120 M0 0 C-1.9 -44.18, -1.55 -87.22, 0 -120" stroke="#1e1e1e" stroke-width="4" fill="none"></path></g><g transform="translate(311.29902339758564 270) rotate(0 0 -60)"><path d="M7.78 -96.24 C3.84 -104.37, 3.73 -113.73, 0 -120 M7.78 -96.24 C3.99 -105.21, 1.49 -113.04, 0 -120" stroke="#1e1e1e" stroke-width="4" fill="none"></path></g><g transform="translate(311.29902339758564 270) rotate(0 0 -60)"><path d="M-9.31 -96.8 C-7.28 -104.63, -1.43 -113.79, 0 -120 M-9.31 -96.8 C-6.84 -105.54, -3.08 -113.17, 0 -120" stroke="#1e1e1e" stroke-width="4" fill="none"></path></g></g><mask></mask></svg>