<svg version="1.1" xmlns="http://www.w3.org/2000/svg" viewBox="0 0 611.809326693206 469.6405153478154" width="611.809326693206" height="469.6405153478154">
  <!-- svg-source:excalidraw -->
  
  <defs>
    <style class="style-fonts">
      
    </style>
    
  </defs>
  <g stroke-linecap="round" transform="translate(10 270.0000000000009) rotate(0 70 89.99999999999955)"><path d="M32 0 C51.73 0.42, 71.36 0.56, 108 0 C125.74 1.66, 141.11 13.55, 140 32 C143.81 65.46, 140.15 101.74, 140 148 C141.05 169.86, 132.88 180.08, 108 180 C83.08 183.97, 58.18 178.17, 32 180 C8.42 183.4, 0.88 167.85, 0 148 C5.22 108.23, 2.15 63.43, 0 32 C-0.27 8.93, 11.79 -2.76, 32 0" stroke="none" stroke-width="0" fill="#fff4e6"></path><path d="M32 0 C58.1 -2.05, 80.8 1.17, 108 0 M32 0 C51.63 1.16, 72.08 -0.53, 108 0 M108 0 C129.73 -0.91, 141.56 8.81, 140 32 M108 0 C129.04 0.44, 138.83 9.33, 140 32 M140 32 C141.84 76.81, 141.18 120.48, 140 148 M140 32 C141.1 64.16, 140.58 94.28, 140 148 M140 148 C141.64 167.38, 128.83 180.5, 108 180 M140 148 C138.44 167.75, 129.02 179.82, 108 180 M108 180 C82.09 182.12, 56.16 178.7, 32 180 M108 180 C91.37 178.93, 73.76 180.49, 32 180 M32 180 C11.13 180.41, -0.04 169.7, 0 148 M32 180 C11.02 177.89, 1.42 169.65, 0 148 M0 148 C-2.25 106.45, -0.43 62.16, 0 32 M0 148 C0.21 101.86, 1.41 57.8, 0 32 M0 32 C-1.09 11.87, 12.01 0.73, 32 0 M0 32 C0.34 8.6, 9.54 1.93, 32 0" stroke="#1e1e1e" stroke-width="2" fill="none"></path></g><g stroke-linecap="round" transform="translate(-29.319088207227196 349.31908820722765) rotate(270 69.3190882072272 9.999999999999545)"><path d="M5 0 C41.92 0.15, 71.13 1.65, 133.64 0 C138.08 2.89, 138.41 3.41, 138.64 5 C138.34 9.41, 139.3 12.48, 138.64 15 C142.18 18.41, 137.59 20.28, 133.64 20 C82.2 18.76, 31.71 25.18, 5 20 C2.54 18.51, 2.65 15.02, 0 15 C-0.05 12.51, -0.3 7.05, 0 5 C1.12 -1.1, 3.13 3.33, 5 0" stroke="none" stroke-width="0" fill="#b2f2bb"></path><path d="M5 0 C54.56 2.74, 105.49 -0.05, 133.64 0 M5 0 C36.94 -1.92, 70.57 -1.5, 133.64 0 M133.64 0 C138.53 -1.86, 138.39 2.05, 138.64 5 M133.64 0 C135.8 -1.34, 140.32 3.5, 138.64 5 M138.64 5 C138.81 9.72, 138.38 13.02, 138.64 15 M138.64 5 C138.68 8.57, 139.1 11.91, 138.64 15 M138.64 15 C138.14 18.84, 135.61 18.62, 133.64 20 M138.64 15 C138.33 18.16, 138.04 20.48, 133.64 20 M133.64 20 C84.07 18.92, 31.43 20.02, 5 20 M133.64 20 C97.76 19.42, 61.18 19.01, 5 20 M5 20 C1.63 20.37, 0.3 16.5, 0 15 M5 20 C3.08 20.32, 1.5 20.21, 0 15 M0 15 C0.32 11.52, 0.97 8.77, 0 5 M0 15 C0.5 11.18, -0.25 7.31, 0 5 M0 5 C1.35 2.39, 1.96 -1.79, 5 0 M0 5 C-1.13 3.6, 0.41 1.55, 5 0" stroke="#1e1e1e" stroke-width="2" fill="none"></path></g><g stroke-linecap="round" transform="translate(51.361823585543334 348.63817641445803) rotate(270 68.63817641445576 9.999999999999545)"><path d="M5 0 C39.69 1.56, 82.66 2.78, 132.28 0 C135.38 1.75, 139.46 4.47, 137.28 5 C137.76 8.09, 139 10.7, 137.28 15 C137.9 18.61, 138.76 19.19, 132.28 20 C82.06 21.48, 37.21 16.59, 5 20 C4.31 16.68, 1.95 21.63, 0 15 C-0.15 10.14, 0.55 5.64, 0 5 C1.47 5, 4.35 -3.26, 5 0" stroke="none" stroke-width="0" fill="#69db7c"></path><path d="M5 0 C34 -2.11, 63.34 -2.78, 132.28 0 M5 0 C53.68 0.66, 102.75 0.18, 132.28 0 M132.28 0 C135.36 0.39, 136.26 0.5, 137.28 5 M132.28 0 C137.29 1.83, 139.02 2.71, 137.28 5 M137.28 5 C136.98 9.28, 137.99 13.05, 137.28 15 M137.28 5 C137.69 8.4, 137.15 12.9, 137.28 15 M137.28 15 C135.92 16.95, 135.34 19.85, 132.28 20 M137.28 15 C138.34 18.82, 137.72 20.48, 132.28 20 M132.28 20 C83.58 17.83, 37.4 20.19, 5 20 M132.28 20 C106.2 21, 79.64 20.97, 5 20 M5 20 C1.97 18.17, 1.23 18.61, 0 15 M5 20 C3.16 21.88, -0.2 16.83, 0 15 M0 15 C0.88 11.2, 0.97 7.94, 0 5 M0 15 C-0.37 13.17, 0.24 10.92, 0 5 M0 5 C0.3 -0.13, 0.68 1.68, 5 0 M0 5 C-1.26 3.21, 1 0.69, 5 0" stroke="#1e1e1e" stroke-width="2" fill="none"></path></g><g stroke-linecap="round" transform="translate(10.000000000000455 350.0000000000009) rotate(270 70.00000000000045 10.000000000000455)"><path d="M5 0 C45.7 1.8, 83.96 0.66, 135 0 C140.52 2.8, 139.39 0.8, 140 5 C141.82 8.48, 140.36 12.03, 140 15 C143.15 17.52, 141.1 18.4, 135 20 C107.8 20.72, 81.49 18.9, 5 20 C3.62 23.3, 3.57 18.56, 0 15 C0.57 10.04, 0.75 9.5, 0 5 C2.68 -1.59, 2.28 0.22, 5 0" stroke="none" stroke-width="0" fill="#e9ecef"></path><path d="M5 0 C55.28 -0.99, 109.02 -0.91, 135 0 M5 0 C33.41 -0.34, 60.14 0.79, 135 0 M135 0 C137.32 -1.16, 141.46 3.26, 140 5 M135 0 C140.08 1.05, 141.77 1.96, 140 5 M140 5 C140.67 9.48, 140.86 12.91, 140 15 M140 5 C139.96 7.87, 139.74 10.15, 140 15 M140 15 C139.73 18.18, 139.26 20.42, 135 20 M140 15 C142.11 18.81, 139.97 20.94, 135 20 M135 20 C108.65 20.87, 81.13 20.35, 5 20 M135 20 C87.91 20.45, 41.02 19.35, 5 20 M5 20 C2.9 20.28, 1.3 19.97, 0 15 M5 20 C1.47 18.5, 0.93 18.93, 0 15 M0 15 C0.9 12.32, -0.96 11.08, 0 5 M0 15 C0.39 11.84, 0.13 7.86, 0 5 M0 5 C-0.98 3.35, 0.57 1.34, 5 0 M0 5 C-0.67 2.36, 1.68 1.32, 5 0" stroke="#1e1e1e" stroke-width="2" fill="none"></path></g><g stroke-linecap="round" transform="translate(450 270.0000000000009) rotate(0 70 89.99999999999955)"><path d="M32 0 C58.08 0.65, 86.81 1.7, 108 0 C128.72 -0.87, 141.6 11.71, 140 32 C142.67 68.77, 145.2 104.17, 140 148 C142.77 167.73, 126.31 177.76, 108 180 C80.66 176.12, 49.98 182.73, 32 180 C14.23 180.23, 2.1 169.07, 0 148 C0.82 122.13, 2.03 86.33, 0 32 C0.61 10.88, 9.98 -1.78, 32 0" stroke="none" stroke-width="0" fill="#f8f1ee"></path><path d="M32 0 C52.95 -0.9, 68.92 0.99, 108 0 M32 0 C51.2 0.9, 70.15 0.13, 108 0 M108 0 C130.79 1.59, 141.52 11.58, 140 32 M108 0 C131.1 0.3, 142.22 9.97, 140 32 M140 32 C142.59 72.68, 140.31 115.06, 140 148 M140 32 C139.03 54.75, 139.57 78.81, 140 148 M140 148 C140.93 169.75, 131.17 180.41, 108 180 M140 148 C141.64 170.27, 127.03 178.35, 108 180 M108 180 C86.76 181.49, 70.49 181.02, 32 180 M108 180 C83.79 179.22, 59.88 180.28, 32 180 M32 180 C11.97 181.63, -0.17 168.03, 0 148 M32 180 C11.6 180.59, -1.3 171.41, 0 148 M0 148 C-2.89 119.72, -0.47 86.55, 0 32 M0 148 C-0.63 105.34, -1.27 65.31, 0 32 M0 32 C-1.09 12.01, 10.09 0.6, 32 0 M0 32 C0.02 11.99, 10.77 -2.29, 32 0" stroke="#1e1e1e" stroke-width="2" fill="none"></path></g><g stroke-linecap="round" transform="translate(451.36182358554515 348.6381764144544) rotate(270 68.63817641445485 9.999999999999545)"><path d="M5 0 C55.57 1.69, 101.16 -1.98, 132.28 0 C137.21 1.05, 137.8 5.21, 137.28 5 C138.88 7.61, 138.69 10.24, 137.28 15 C134.25 16.09, 139.01 20.88, 132.28 20 C101.3 21.19, 69.99 18.12, 5 20 C3.76 19.73, -1.74 19.45, 0 15 C1.27 11.14, 0.23 10.64, 0 5 C-0.69 -0.12, 1.8 3.59, 5 0" stroke="none" stroke-width="0" fill="#ffc9c9"></path><path d="M5 0 C31.36 1.35, 60.3 2.51, 132.28 0 M5 0 C30.83 -0.83, 58.4 0.55, 132.28 0 M132.28 0 C137.12 0.91, 138.82 1.93, 137.28 5 M132.28 0 C137.83 -0.7, 138.45 3.27, 137.28 5 M137.28 5 C137.11 9.33, 136.39 11.77, 137.28 15 M137.28 5 C137.14 8.21, 137.44 11.61, 137.28 15 M137.28 15 C139.11 18.75, 137.04 20.81, 132.28 20 M137.28 15 C134.98 16.69, 134.57 19.6, 132.28 20 M132.28 20 C86.06 21.06, 37.77 20.56, 5 20 M132.28 20 C92.37 18.97, 51.89 19.65, 5 20 M5 20 C1.49 18.7, 0.81 18.85, 0 15 M5 20 C0.37 22.08, -0.92 20.62, 0 15 M0 15 C0.43 11.7, 0.69 10.17, 0 5 M0 15 C-0.26 12.06, -0.29 8.61, 0 5 M0 5 C-0.58 2.27, 1.68 1.15, 5 0 M0 5 C0.11 -0.63, 2.73 0.71, 5 0" stroke="#1e1e1e" stroke-width="2" fill="none"></path></g><g stroke-linecap="round" transform="translate(411.36182358554333 348.63817641445803) rotate(270 68.63817641445576 9.999999999999545)"><path d="M5 0 C48.75 -2.65, 95.31 -0.74, 132.28 0 C136.13 3.54, 137.35 2.29, 137.28 5 C138.82 7.28, 135.92 10.03, 137.28 15 C140.68 19.21, 134.12 22.65, 132.28 20 C109.38 22.33, 81.46 21.83, 5 20 C-0.07 21.12, -2.76 19.8, 0 15 C0.17 11.18, -0.48 6.26, 0 5 C0.14 5.26, 3.31 -1.68, 5 0" stroke="none" stroke-width="0" fill="#a5d8ff"></path><path d="M5 0 C32.69 1.31, 60.34 -0.5, 132.28 0 M5 0 C46.37 1.54, 87.03 1.2, 132.28 0 M132.28 0 C137.15 0.26, 139.2 1.06, 137.28 5 M132.28 0 C136.78 1.61, 138.45 3.71, 137.28 5 M137.28 5 C136.27 7.74, 137.5 10.29, 137.28 15 M137.28 5 C137.49 7.41, 137.72 9.72, 137.28 15 M137.28 15 C138.7 19.15, 133.61 18.57, 132.28 20 M137.28 15 C136.24 17.93, 137.29 17.85, 132.28 20 M132.28 20 C88.54 20.26, 44.35 20.6, 5 20 M132.28 20 C106.41 20.99, 79.15 19.52, 5 20 M5 20 C2.47 20.52, -1.13 20.14, 0 15 M5 20 C0.75 22.29, -0.57 16.34, 0 15 M0 15 C0.57 11.72, 0.33 7.25, 0 5 M0 15 C-0.22 13.23, -0.1 10.94, 0 5 M0 5 C0.01 2.81, 1.76 -1.99, 5 0 M0 5 C1.06 2.37, 3.51 -0.14, 5 0" stroke="#1e1e1e" stroke-width="2" fill="none"></path></g><g stroke-linecap="round" transform="translate(490.00000000000045 350.0000000000009) rotate(270 69.99999999999955 9.999999999999545)"><path d="M5 0 C55.71 1.61, 103.75 4.11, 135 0 C138.41 0.62, 140.28 4.81, 140 5 C138.63 6.65, 141.84 10.99, 140 15 C138.51 20.98, 135.02 21.95, 135 20 C86.18 19.88, 31.44 21.27, 5 20 C-1.1 21.47, 3.33 21.02, 0 15 C-0.38 12.01, 0.04 12.61, 0 5 C1.64 -0.01, 4.73 0.19, 5 0" stroke="none" stroke-width="0" fill="#f3f0ff"></path><path d="M5 0 C44.68 -1.26, 88.48 -2.03, 135 0 M5 0 C37.2 -0.58, 68.65 -0.91, 135 0 M135 0 C140.26 -0.61, 141.02 3.06, 140 5 M135 0 C139.51 2.05, 139.97 1.09, 140 5 M140 5 C140.15 8.14, 139.21 12.51, 140 15 M140 5 C140.5 8.03, 140.4 11.05, 140 15 M140 15 C138 16.9, 137.43 19.65, 135 20 M140 15 C141.68 16.19, 139.41 21.43, 135 20 M135 20 C93.36 20.28, 49.15 21.21, 5 20 M135 20 C94.1 20.41, 53.78 21.32, 5 20 M5 20 C0.54 21.81, -0.8 20.32, 0 15 M5 20 C1.09 18.01, 2.19 19.12, 0 15 M0 15 C0.3 12.69, -0.96 9.6, 0 5 M0 15 C-0.09 11.31, 0.06 7.6, 0 5 M0 5 C0.09 -0.33, 2.59 0.61, 5 0 M0 5 C1.84 1.52, 2.78 1.4, 5 0" stroke="#1e1e1e" stroke-width="2" fill="none"></path></g><g stroke-linecap="round" transform="translate(230 270.0000000000009) rotate(0 70 89.99999999999955)"><path d="M32 0 C53.5 3.15, 74.02 0.22, 108 0 C129.61 3.15, 139.19 13.44, 140 32 C141.65 62.51, 136.76 93.92, 140 148 C136.68 171.28, 132.63 183.57, 108 180 C82.98 181.02, 58.66 181.37, 32 180 C14 182.68, -3.26 169.95, 0 148 C0.54 116.09, 2.04 75.32, 0 32 C3.06 10.86, 7.65 3.55, 32 0" stroke="none" stroke-width="0" fill="#fff9db"></path><path d="M32 0 C61.1 -0.92, 88.26 1.56, 108 0 M32 0 C61.63 -0.22, 90.68 -0.65, 108 0 M108 0 C130.35 1.4, 141.02 12.44, 140 32 M108 0 C129.3 -0.58, 141.89 8.41, 140 32 M140 32 C138.91 63.62, 140.14 96.71, 140 148 M140 32 C141.78 69.64, 140.06 105.74, 140 148 M140 148 C139.1 168.98, 130.79 178.13, 108 180 M140 148 C141.08 170.76, 129.87 180.47, 108 180 M108 180 C83.51 181.35, 62.96 181.42, 32 180 M108 180 C79.39 179.76, 49.42 180.41, 32 180 M32 180 C9.87 181.99, -0.5 167.6, 0 148 M32 180 C12.85 180.79, -1.26 170.71, 0 148 M0 148 C-2.21 104.4, 1.26 61.68, 0 32 M0 148 C0.34 105.98, 0.38 61.81, 0 32 M0 32 C0.92 11.28, 12.27 -0.13, 32 0 M0 32 C1.12 12.06, 12.46 -0.39, 32 0" stroke="#1e1e1e" stroke-width="2" fill="none"></path></g><g stroke-linecap="round" transform="translate(190.6809117927719 350.0000000000009) rotate(270 69.3190882072272 9.999999999999545)"><path d="M5 0 C47.41 -1.66, 89.94 0.87, 133.64 0 C136.16 2.77, 137.04 -1.36, 138.64 5 C138.06 8.7, 137.15 10.73, 138.64 15 C141.94 21.9, 137.2 22.1, 133.64 20 C93.24 22.19, 61.7 23.4, 5 20 C-1.59 20.61, 0.22 17.64, 0 15 C0.81 11.66, 1.52 10.09, 0 5 C-3.02 5.21, 3.33 2.78, 5 0" stroke="none" stroke-width="0" fill="#fcc2d7"></path><path d="M5 0 C40.81 2.12, 80.54 2.17, 133.64 0 M5 0 C50.41 -0.47, 94.41 0.53, 133.64 0 M133.64 0 C138 1.78, 138.61 1.16, 138.64 5 M133.64 0 C138.86 -2.25, 138.06 2.25, 138.64 5 M138.64 5 C138.49 7.79, 138.78 10.56, 138.64 15 M138.64 5 C138.21 7.85, 138.48 11.33, 138.64 15 M138.64 15 C140.1 16.47, 137.91 21.24, 133.64 20 M138.64 15 C139.17 18.81, 136.93 20.42, 133.64 20 M133.64 20 C93.36 22.1, 54.17 20.62, 5 20 M133.64 20 C102.87 21.24, 72.84 21.33, 5 20 M5 20 C1.17 18.27, 1.9 19.02, 0 15 M5 20 C0.41 21.38, 1.55 19.17, 0 15 M0 15 C0.93 11.31, 0.76 8.41, 0 5 M0 15 C0.02 11.2, 0.23 8.55, 0 5 M0 5 C1.6 1.54, 2.64 1.22, 5 0 M0 5 C1.79 1.28, 1.11 1.02, 5 0" stroke="#1e1e1e" stroke-width="2" fill="none"></path></g><g stroke-linecap="round" transform="translate(230.6809117927719 349.3190882072313) rotate(270 69.3190882072281 10.000000000000455)"><path d="M5 0 C56.53 2.75, 106.69 2.37, 133.64 0 C135.37 -3.02, 136.4 5.07, 138.64 5 C136.91 9.22, 140.21 13.27, 138.64 15 C138.87 20.43, 136.7 18.26, 133.64 20 C94.38 23.63, 45.19 21.56, 5 20 C1.88 19.31, -1.78 18.47, 0 15 C1.45 11.1, -1.59 8.78, 0 5 C1.66 4.44, 4.95 -2.16, 5 0" stroke="none" stroke-width="0" fill="#eaddd7"></path><path d="M5 0 C38.64 0.58, 70 0.6, 133.64 0 M5 0 C45.77 1.09, 86.03 1.28, 133.64 0 M133.64 0 C136.94 -0.5, 140.28 -0.29, 138.64 5 M133.64 0 C136.39 0.58, 137.08 0.08, 138.64 5 M138.64 5 C138.84 8.78, 138.84 11.44, 138.64 15 M138.64 5 C138.31 8.32, 138.9 11.35, 138.64 15 M138.64 15 C139.58 19.57, 137.43 20.41, 133.64 20 M138.64 15 C138.6 18.76, 137.32 17.89, 133.64 20 M133.64 20 C88.76 20.67, 39.3 21.65, 5 20 M133.64 20 C91.33 22.15, 49.56 20.29, 5 20 M5 20 C3.57 20.69, -1.09 19.53, 0 15 M5 20 C3.22 20.83, 0.34 16.27, 0 15 M0 15 C0.59 12.2, 0.22 9.99, 0 5 M0 15 C0.23 11.58, 0.4 7.82, 0 5 M0 5 C0.97 2.88, 3.22 -0.34, 5 0 M0 5 C-0.55 2.69, 2.34 0.34, 5 0" stroke="#1e1e1e" stroke-width="2" fill="none"></path></g><g stroke-linecap="round" transform="translate(270.6809117927737 349.31908820722765) rotate(270 69.3190882072272 10.000000000000455)"><path d="M5 0 C44.99 0.74, 85.01 -5.05, 133.64 0 C134.73 3.4, 139.52 0.18, 138.64 5 C140.12 10.52, 138.59 13.52, 138.64 15 C138.37 16.6, 138.09 17.24, 133.64 20 C86.55 22.34, 46.19 21.04, 5 20 C-0.12 20.14, 3.59 19.98, 0 15 C-1.66 14.24, 0.68 11.32, 0 5 C3.29 -0.49, 4.34 3.37, 5 0" stroke="none" stroke-width="0" fill="#ebfbee"></path><path d="M5 0 C53.9 0.56, 101.24 0.95, 133.64 0 M5 0 C40.19 -0.01, 74.33 -1.15, 133.64 0 M133.64 0 C138.61 -1.96, 138.14 2.17, 138.64 5 M133.64 0 C135.41 -1.59, 138.33 1.49, 138.64 5 M138.64 5 C138.87 9.18, 139.07 10.93, 138.64 15 M138.64 5 C138.96 6.82, 138.83 9.88, 138.64 15 M138.64 15 C139.1 18.75, 136.93 20.37, 133.64 20 M138.64 15 C138.99 16.23, 138.39 20.32, 133.64 20 M133.64 20 C85.36 20.7, 40.21 18.76, 5 20 M133.64 20 C83.18 20.41, 34.18 21.62, 5 20 M5 20 C0.57 21.2, 1.35 19.06, 0 15 M5 20 C2.01 17.94, -1.13 20.27, 0 15 M0 15 C0.23 12.55, 0.51 10.14, 0 5 M0 15 C0.35 12.97, 0.2 11.3, 0 5 M0 5 C1.56 1.33, 1.19 0.89, 5 0 M0 5 C0.67 2, 3.93 0.05, 5 0" stroke="#1e1e1e" stroke-width="2" fill="none"></path></g><g stroke-linecap="round" transform="translate(10.03227688685729 30.000001809091373) rotate(270.0154157439596 69.9865497594052 49.99999819090999)"><path d="M-1.09 1.2 L141.32 0.73 L140.27 98.21 L-0.98 101.68" stroke="none" stroke-width="0" fill="#fff4e6"></path><path d="M0 0 C52.86 0.85, 104.58 -0.06, 139.97 0 M0 0 C51.76 -1.5, 104.38 -2.22, 139.97 0 M139.97 0 C138.84 27.22, 140.07 55.91, 139.97 100 M139.97 0 C141.6 32.5, 139.89 63.47, 139.97 100 M139.97 100 C102.42 101.96, 69.84 101.48, 0 100 M139.97 100 C95.25 99.34, 50.84 100.4, 0 100 M0 100 C-2.12 64.29, -0.3 25.84, 0 0 M0 100 C0.15 60.1, 1.35 22.29, 0 0" stroke="#1e1e1e" stroke-width="2" fill="none"></path></g><g stroke-linecap="round" transform="translate(50.008065512023904 110.01344806886937) rotate(180.01541574395964 29.997307998009887 9.989240676215104)"><path d="M0.67 0.36 L60.14 -0.9 L59.5 20.82 L-0.55 20.65" stroke="none" stroke-width="0" fill="#b2f2bb"></path><path d="M0 0 C22.31 0.22, 45.93 0.22, 59.99 0 M0 0 C23.74 -0.41, 46.54 0.2, 59.99 0 M59.99 0 C59.85 5.1, 60.13 10.19, 59.99 19.98 M59.99 0 C59.57 6.05, 59.84 12.73, 59.99 19.98 M59.99 19.98 C38.24 20.35, 15.46 20.1, 0 19.98 M59.99 19.98 C41.2 19.77, 22.12 20.11, 0 19.98 M0 19.98 C0.32 13.59, 0.97 7.94, 0 0 M0 19.98 C0.5 12.17, -0.25 4.32, 0 0" stroke="#1e1e1e" stroke-width="2" fill="none"></path></g><g stroke-linecap="round" transform="translate(50.029589950863055 30.013448068873004) rotate(180.01541574395964 29.986545778590084 9.98924212403108)"><path d="M0.15 -0.9 L59.48 0.84 L59.43 20.65 L-0.29 20.28" stroke="none" stroke-width="0" fill="#69db7c"></path><path d="M0 0 C24.47 0.36, 48.44 -0.17, 59.97 0 M0 0 C16.35 0.42, 32.62 -0.05, 59.97 0 M59.97 0 C60.17 6.64, 60.17 12.16, 59.97 19.98 M59.97 0 C59.65 6.72, 60.24 13.15, 59.97 19.98 M59.97 19.98 C39.38 20.03, 18.55 20.2, 0 19.98 M59.97 19.98 C47.8 20.43, 34.94 19.69, 0 19.98 M0 19.98 C0.88 12.78, 0.97 6.13, 0 0 M0 19.98 C-0.37 16.02, 0.24 11.64, 0 0" stroke="#1e1e1e" stroke-width="2" fill="none"></path></g><g stroke-linecap="round" transform="translate(50.018827731443935 70.01344806886937) rotate(180.01541574395964 29.99192688829976 9.98924140012332)"><path d="M-0.49 0.84 L59.44 0.67 L59.69 20.28 L0.01 20.55" stroke="none" stroke-width="0" fill="#e9ecef"></path><path d="M0 0 C21.94 -0.17, 41.85 0.67, 59.98 0 M0 0 C11.78 -0.42, 24.18 -0.11, 59.98 0 M59.98 0 C60.21 7.63, 60.41 12.84, 59.98 19.98 M59.98 0 C60.3 4.1, 60.17 9.44, 59.98 19.98 M59.98 19.98 C40.78 20.13, 20.3 20.59, 0 19.98 M59.98 19.98 C41.11 19.9, 22.52 20.35, 0 19.98 M0 19.98 C0.9 14.87, -0.96 11.2, 0 0 M0 19.98 C0.39 13.48, 0.13 6.17, 0 0" stroke="#1e1e1e" stroke-width="2" fill="none"></path></g><g stroke-linecap="round" transform="translate(450 30.00000000000091) rotate(270 70 50)"><path d="M-1.09 1.34 L139.42 0.6 L140.01 101.15 L0.09 98.01" stroke="none" stroke-width="0" fill="#f8f1ee"></path><path d="M0 0 C48.67 1.66, 96.39 -0.48, 140 0 M0 0 C45.39 0.89, 91.52 1.18, 140 0 M140 0 C141.02 37.17, 138.77 77.44, 140 100 M140 0 C141.2 28.88, 140.96 56.72, 140 100 M140 100 C96.42 101.45, 56.79 101.52, 0 100 M140 100 C86.97 99.35, 32.56 99.99, 0 100 M0 100 C-2.73 75.89, -0.31 46.88, 0 0 M0 100 C-0.53 63.1, -1.16 28.83, 0 0" stroke="#1e1e1e" stroke-width="2" fill="none"></path></g><g stroke-linecap="round" transform="translate(490 70.00000000000091) rotate(180 30.000000000000227 9.999999999998636)"><path d="M-0.29 0.3 L60.01 0.57 L60.05 19 L0.46 20.31" stroke="none" stroke-width="0" fill="#ffc9c9"></path><path d="M0 0 C16.94 -0.5, 36.08 -0.92, 60 0 M0 0 C14.09 0.13, 28.18 0.13, 60 0 M60 0 C59.32 6.98, 59.87 15.58, 60 20 M60 0 C60.16 4.24, 60.04 8.36, 60 20 M60 20 C41.22 20.84, 22.99 20.1, 0 20 M60 20 C45.63 20.53, 31.63 20.57, 0 20 M0 20 C0.43 13.95, 0.69 9.67, 0 0 M0 20 C-0.26 13.69, -0.29 6.88, 0 0" stroke="#1e1e1e" stroke-width="2" fill="none"></path></g><g stroke-linecap="round" transform="translate(490 110.00000000000091) rotate(180 29.999999999999773 10.000000000000455)"><path d="M0.01 1.15 L60.09 -1.99 L60.92 20.61 L1.6 19.87" stroke="none" stroke-width="0" fill="#a5d8ff"></path><path d="M0 0 C23.42 -1.21, 44.46 -0.12, 60 0 M0 0 C18.46 0.08, 35.79 0.28, 60 0 M60 0 C59.51 5.46, 57.99 8.94, 60 20 M60 0 C60.03 7.42, 60.2 13.57, 60 20 M60 20 C39.94 20.22, 15.3 21.2, 0 20 M60 20 C40.05 21.54, 20.65 19.67, 0 20 M0 20 C1.13 13.45, 0.66 4.49, 0 0 M0 20 C-0.45 16.47, -0.19 11.89, 0 0" stroke="#1e1e1e" stroke-width="2" fill="none"></path></g><g stroke-linecap="round" transform="translate(489.9999999999982 30.00000000000091) rotate(180 30.00000000000091 10.000000000000455)"><path d="M0.09 -1.99 L60.92 0.61 L61.6 19.87 L0.97 21.22" stroke="none" stroke-width="0" fill="#f3f0ff"></path><path d="M0 0 C15.12 0.14, 32.84 1.34, 60 0 M0 0 C19.97 0.28, 37.51 -0.84, 60 0 M60 0 C58.1 6.04, 61.21 10.66, 60 20 M60 0 C60.15 5.5, 60.61 12.96, 60 20 M60 20 C36.79 20.76, 16.7 18.82, 0 20 M60 20 C36.33 19.73, 14.12 20.94, 0 20 M0 20 C0.61 15.39, -1.91 9.2, 0 0 M0 20 C-0.18 12.62, 0.12 5.21, 0 0" stroke="#1e1e1e" stroke-width="2" fill="none"></path></g><g stroke-linecap="round" transform="translate(230.26008340111048 30.30977770248228) rotate(269.72511780873134 69.5698289144782 49.496715064816726)"><path d="M0.92 0.61 L140.74 -0.13 L140.11 100.21 L1.56 98.66" stroke="none" stroke-width="0" fill="#fff9db"></path><path d="M0 0 C32.14 1.11, 65.01 2.02, 139.14 0 M0 0 C43.63 -1.28, 88.8 -0.74, 139.14 0 M139.14 0 C139.46 37.38, 138.63 73.79, 139.14 98.99 M139.14 0 C139.91 31.65, 139.94 63.84, 139.14 98.99 M139.14 98.99 C99.11 98.42, 59.85 98.76, 0 98.99 M139.14 98.99 C84.52 98.13, 27.46 98.39, 0 98.99 M0 98.99 C-2.15 61.64, 1.32 25.17, 0 0 M0 98.99 C0.29 63.21, 0.33 25.29, 0 0" stroke="#1e1e1e" stroke-width="2" fill="none"></path></g><g stroke-linecap="round" transform="translate(271.1359250145981 109.89416975798758) rotate(179.72511780873126 29.273379689378885 9.965982463117143)"><path d="M0.8 -0.06 L59.03 0.61 L59.32 19.76 L-0.24 20.38" stroke="none" stroke-width="0" fill="#fcc2d7"></path><path d="M0 0 C16.99 0.78, 33.76 0.58, 58.55 0 M0 0 C19.72 0.12, 40.26 -0.26, 58.55 0 M58.55 0 C58.81 6.9, 58.79 13.98, 58.55 19.93 M58.55 0 C58.93 4.56, 58.57 7.98, 58.55 19.93 M58.55 19.93 C39.52 19.37, 19.68 19.52, 0 19.93 M58.55 19.93 C45.79 20.33, 33.91 20.21, 0 19.93 M0 19.93 C0.93 13.11, 0.76 7.09, 0 0 M0 19.93 C0.02 12.85, 0.23 6.92, 0 0" stroke="#1e1e1e" stroke-width="2" fill="none"></path></g><g stroke-linecap="round" transform="translate(270.266081892325 70.03186771654964) rotate(179.72511780873126 29.70830265266295 9.965982463118053)"><path d="M0.48 0.61 L60.19 -0.17 L59.18 20.38 L0.29 20.08" stroke="none" stroke-width="0" fill="#eaddd7"></path><path d="M0 0 C20.79 0.44, 41.57 -1.27, 59.42 0 M0 0 C13.93 -0.41, 27.37 0.36, 59.42 0 M59.42 0 C59.62 6.59, 58.52 13.5, 59.42 19.93 M59.42 0 C59.44 5.93, 59.68 12.64, 59.42 19.93 M59.42 19.93 C45.94 19.56, 29.62 20.76, 0 19.93 M59.42 19.93 C39.89 20.29, 19.76 19.66, 0 19.93 M0 19.93 C0.59 14.64, 0.22 9.94, 0 0 M0 19.93 C0.23 12.96, 0.39 5.66, 0 0" stroke="#1e1e1e" stroke-width="2" fill="none"></path></g><g stroke-linecap="round" transform="translate(269.9785315376271 30.065805310926407) rotate(179.72511780873126 29.851380777961595 9.777876773109256)"><path d="M0.78 -0.17 L59.46 0.44 L59.99 19.7 L0.98 19.58" stroke="none" stroke-width="0" fill="#ebfbee"></path><path d="M0 0 C23.79 -1.21, 46.05 -0.66, 59.7 0 M0 0 C17.1 0.59, 33.85 0.38, 59.7 0 M59.7 0 C58.82 6.43, 59.86 12.3, 59.7 19.56 M59.7 0 C59.89 7.59, 59.42 15.37, 59.7 19.56 M59.7 19.56 C43.3 20.43, 28.98 18.94, 0 19.56 M59.7 19.56 C38.28 19.22, 16.46 20.08, 0 19.56 M0 19.56 C0.23 14.77, 0.49 10, 0 0 M0 19.56 C0.35 15.61, 0.19 12.02, 0 0" stroke="#1e1e1e" stroke-width="2" fill="none"></path></g><g stroke-linecap="round"><g transform="translate(70.26805348409334 151.10973067240866) rotate(0 0.4607535522889066 59.39497008285298)"><path d="M-1.2 -0.86 C-1.28 18.82, -0.12 98.83, 0.38 118.58 M0.37 1.3 C0.01 21.13, -1.04 100.49, -0.85 120.01" stroke="#1e1e1e" stroke-width="4" fill="none"></path></g><g transform="translate(70.26805348409334 151.10973067240866) rotate(0 0.4607535522889066 59.39497008285298)"><path d="M-9.31 96.48 C-7.51 104.4, -3.28 115.5, -0.85 120.01 M-9.31 96.48 C-7.22 101.5, -5.72 106.34, -0.85 120.01" stroke="#1e1e1e" stroke-width="4" fill="none"></path></g><g transform="translate(70.26805348409334 151.10973067240866) rotate(0 0.4607535522889066 59.39497008285298)"><path d="M7.79 96.55 C3.24 104.27, 1.12 115.34, -0.85 120.01 M7.79 96.55 C6.34 101.66, 4.31 106.48, -0.85 120.01" stroke="#1e1e1e" stroke-width="4" fill="none"></path></g></g><mask></mask><g stroke-linecap="round"><g transform="translate(291.2351205645259 150.6375013090883) rotate(0 -0.8447148458631091 59.997672961857006)"><path d="M-0.54 -0.21 C-0.48 19.75, -0.72 98.72, -0.81 118.88 M1.38 -1.36 C1.46 18.77, -0.81 99.8, -1.3 119.83" stroke="#1e1e1e" stroke-width="4" fill="none"></path></g><g transform="translate(291.2351205645259 150.6375013090883) rotate(0 -0.8447148458631091 59.997672961857006)"><path d="M-9.24 96.12 C-8.17 102.35, -8.1 106.58, -1.3 119.83 M-9.24 96.12 C-6.33 104.87, -3.29 112.35, -1.3 119.83" stroke="#1e1e1e" stroke-width="4" fill="none"></path></g><g transform="translate(291.2351205645259 150.6375013090883) rotate(0 -0.8447148458631091 59.997672961857006)"><path d="M7.86 96.56 C5.51 102.63, 2.16 106.77, -1.3 119.83 M7.86 96.56 C4.58 105.19, 1.43 112.51, -1.3 119.83" stroke="#1e1e1e" stroke-width="4" fill="none"></path></g></g><mask></mask><g stroke-linecap="round"><g transform="translate(510.5787451218812 150.605778335409) rotate(0 0.9377963715778606 59.7347176517128)"><path d="M0.87 -1.12 C1.37 18.95, 2.22 100.07, 2.44 120.21 M-0.13 0.91 C0.31 20.66, 1.51 98.44, 1.79 118.48" stroke="#1e1e1e" stroke-width="4" fill="none"></path></g><g transform="translate(510.5787451218812 150.605778335409) rotate(0 0.9377963715778606 59.7347176517128)"><path d="M-7.11 95.12 C-6.75 101.95, -1.37 107.43, 1.79 118.48 M-7.11 95.12 C-4.11 101.68, -0.8 110.22, 1.79 118.48" stroke="#1e1e1e" stroke-width="4" fill="none"></path></g><g transform="translate(510.5787451218812 150.605778335409) rotate(0 0.9377963715778606 59.7347176517128)"><path d="M9.99 94.87 C5.99 101.88, 7 107.43, 1.79 118.48 M9.99 94.87 C7.51 101.54, 5.34 110.16, 1.79 118.48" stroke="#1e1e1e" stroke-width="4" fill="none"></path></g></g><mask></mask><g stroke-linecap="round"><g transform="translate(90.29732356608133 270.31339523680526) rotate(0 0 -60)"><path d="M0.56 0.74 C0.46 -19.03, 0.38 -99.67, 0.28 -119.75 M-0.6 0.09 C-0.91 -19.97, -0.49 -102.01, -0.52 -121.75" stroke="#1e1e1e" stroke-width="4" fill="none"></path></g><g transform="translate(90.29732356608133 270.31339523680526) rotate(0 0 -60)"><path d="M7.98 -98.24 C6.27 -106.5, 2.27 -115.77, -0.52 -121.75 M7.98 -98.24 C5.85 -105.66, 3.18 -112.47, -0.52 -121.75" stroke="#1e1e1e" stroke-width="4" fill="none"></path></g><g transform="translate(90.29732356608133 270.31339523680526) rotate(0 0 -60)"><path d="M-9.12 -98.27 C-4.45 -106.6, -2.08 -115.85, -0.52 -121.75 M-9.12 -98.27 C-5.8 -105.53, -3.03 -112.32, -0.52 -121.75" stroke="#1e1e1e" stroke-width="4" fill="none"></path></g></g><mask></mask><g stroke-linecap="round"><g transform="translate(530.3107238199595 270.0000000000009) rotate(0 0 -60)"><path d="M0 0 C-0.33 -41.66, -0.38 -82.94, 0 -120 M0 0 C-0.09 -24.19, -0.82 -50.66, 0 -120" stroke="#1e1e1e" stroke-width="4" fill="none"></path></g><g transform="translate(530.3107238199595 270.0000000000009) rotate(0 0 -60)"><path d="M8.38 -96.45 C5.74 -104.63, 2.79 -112.46, 0 -120 M8.38 -96.45 C7.14 -100.52, 4.66 -106.9, 0 -120" stroke="#1e1e1e" stroke-width="4" fill="none"></path></g><g transform="translate(530.3107238199595 270.0000000000009) rotate(0 0 -60)"><path d="M-8.72 -96.57 C-5.43 -104.75, -2.45 -112.54, 0 -120 M-8.72 -96.57 C-6.4 -100.65, -5.32 -107, 0 -120" stroke="#1e1e1e" stroke-width="4" fill="none"></path></g></g><mask></mask><g stroke-linecap="round"><g transform="translate(150 350.0000000000009) rotate(0 40 0)"><path d="M0 0 C26.22 0.32, 49.87 1.25, 80 0 M0 0 C25.03 -1.31, 50.63 -0.4, 80 0" stroke="#1e1e1e" stroke-width="2" fill="none"></path></g><g transform="translate(150 350.0000000000009) rotate(0 40 0)"><path d="M23.59 -8.29 C16.35 -5.31, 6.53 -1.7, 0 0 M23.59 -8.29 C16.15 -6.14, 9.24 -2.63, 0 0" stroke="#1e1e1e" stroke-width="2" fill="none"></path></g><g transform="translate(150 350.0000000000009) rotate(0 40 0)"><path d="M23.39 8.81 C16.18 6.27, 6.42 4.34, 0 0 M23.39 8.81 C15.91 5.59, 9.05 3.73, 0 0" stroke="#1e1e1e" stroke-width="2" fill="none"></path></g><g transform="translate(150 350.0000000000009) rotate(0 40 0)"><path d="M56.37 8.16 C64.36 5.83, 69.79 4.12, 80 0 M56.37 8.16 C63.65 4.75, 71.56 3.1, 80 0" stroke="#1e1e1e" stroke-width="2" fill="none"></path></g><g transform="translate(150 350.0000000000009) rotate(0 40 0)"><path d="M56.65 -8.94 C64.58 -5.74, 69.93 -1.92, 80 0 M56.65 -8.94 C63.95 -6.97, 71.77 -3.26, 80 0" stroke="#1e1e1e" stroke-width="2" fill="none"></path></g></g><mask></mask><g stroke-linecap="round"><g transform="translate(370 350.0000000000009) rotate(0 40 0)"><path d="M0 0 C22.02 1.11, 47.99 1.18, 80 0 M0 0 C30.94 0.78, 60.51 1.42, 80 0" stroke="#1e1e1e" stroke-width="2" fill="none"></path></g><g transform="translate(370 350.0000000000009) rotate(0 40 0)"><path d="M23.61 -8.22 C14.75 -4.5, 9.82 -1.98, 0 0 M23.61 -8.22 C14.99 -4.98, 5.01 -1.2, 0 0" stroke="#1e1e1e" stroke-width="2" fill="none"></path></g><g transform="translate(370 350.0000000000009) rotate(0 40 0)"><path d="M23.37 8.87 C14.55 7.5, 9.7 4.92, 0 0 M23.37 8.87 C14.86 5.59, 4.97 2.85, 0 0" stroke="#1e1e1e" stroke-width="2" fill="none"></path></g><g transform="translate(370 350.0000000000009) rotate(0 40 0)"><path d="M56.86 9.45 C61.91 7.83, 70.92 5.08, 80 0 M56.86 9.45 C66.1 6.25, 73.97 3.29, 80 0" stroke="#1e1e1e" stroke-width="2" fill="none"></path></g><g transform="translate(370 350.0000000000009) rotate(0 40 0)"><path d="M56.19 -7.63 C61.47 -4.16, 70.68 -1.82, 80 0 M56.19 -7.63 C65.68 -4.31, 73.8 -0.75, 80 0" stroke="#1e1e1e" stroke-width="2" fill="none"></path></g></g><mask></mask><g stroke-linecap="round"><g transform="translate(311.29902339758564 270.0000000000009) rotate(0 0 -60)"><path d="M0 0 C1.38 -36.53, 2.73 -75.83, 0 -120 M0 0 C-1.05 -27.27, -0.88 -55.35, 0 -120" stroke="#1e1e1e" stroke-width="4" fill="none"></path></g><g transform="translate(311.29902339758564 270.0000000000009) rotate(0 0 -60)"><path d="M8.27 -96.41 C6.16 -102.49, 4.91 -111.4, 0 -120 M8.27 -96.41 C5.67 -101.02, 3.89 -106.47, 0 -120" stroke="#1e1e1e" stroke-width="4" fill="none"></path></g><g transform="translate(311.29902339758564 270.0000000000009) rotate(0 0 -60)"><path d="M-8.83 -96.61 C-5.55 -102.74, -1.41 -111.58, 0 -120 M-8.83 -96.61 C-7.42 -101.22, -5.18 -106.62, 0 -120" stroke="#1e1e1e" stroke-width="4" fill="none"></path></g></g><mask></mask><g stroke-linecap="round"><g transform="translate(441.809326693206 259.6405153478163) rotate(0 80 99.99999999999955)"><path d="M0 0 C60.83 74.01, 120.71 150.09, 160 200 M0 0 C47.94 55.81, 93 113.42, 160 200" stroke="#e03131" stroke-width="4" fill="none"></path></g></g><mask></mask><g stroke-linecap="round"><g transform="translate(601.809326693206 259.6405153478163) rotate(0 -80 99.99999999999955)"><path d="M0 0 C-57.01 70.03, -115.22 143.29, -160 200 M0 0 C-37.34 46.22, -74.51 93.87, -160 200" stroke="#e03131" stroke-width="4" fill="none"></path></g></g><mask></mask></svg>